<svg xmlns="http://www.w3.org/2000/svg" xmlns:xlink="http://www.w3.org/1999/xlink" width="1250" height="905" viewBox="0 0 937.5 678.75"><clipPath id="a"><path transform="scale(.24)" d="M0 0h3906.25v2828.125H0z" fill-rule="evenodd"/></clipPath><g clip-path="url(#a)"><path d="M0 0h937.5v678.75H0z" fill="#fff"/></g><clipPath id="b"><path transform="scale(.24)" d="M0 0h3906.25v2828.125H0z" fill-rule="evenodd"/></clipPath><g clip-path="url(#b)"><path d="M0 0h937.5v678.75H0z" fill="#caf3ff"/></g><clipPath id="c"><path transform="scale(.24)" d="M0 0h3906.25v2828.125H0z" fill-rule="evenodd"/></clipPath><g clip-path="url(#c)"><g opacity=".5"><clipPath id="d"><path transform="translate(59.28) scale(.24)" d="M0 0h3660v2829H0z" fill-rule="evenodd"/></clipPath><g clip-path="url(#d)"><clipPath id="e"><path transform="translate(59.28) scale(.24)" d="M.765-259.112 1863.55-2121.896l3493.549 3493.55-1862.784 1862.784L.765-259.112z"/></clipPath><g clip-path="url(#e)"><path d="m59.464-62.187 447.068-447.068 838.452 838.452-447.068 447.068z" fill="#fff"/></g></g></g><g data-name="H1"><symbol id="f"><path d="M0 .735V0h.108v.294c.023 0 .046.004.069.011C.2.313.22.325.238.342.256.359.27.382.281.41a.281.281 0 0 1 .017.105.29.29 0 0 1-.017.106.173.173 0 0 1-.043.068.147.147 0 0 1-.061.036.243.243 0 0 1-.069.01H0M.108.404v.221C.141.625.163.616.174.599A.08.08 0 0 0 .186.564a.4.4 0 0 0 0-.105.07.07 0 0 0-.012-.032C.164.412.141.404.108.404z"/></symbol><symbol id="g"><path d="M.193 0h.108L.232.356c.02.014.036.036.045.066.01.03.015.064.015.101 0 .07-.015.122-.044.158C.219.717.173.735.108.735H0V0h.108v.31h.029L.193 0M.108.41v.218c.007 0 .016 0 .025-.002A.048.048 0 0 0 .159.613.074.074 0 0 0 .179.58.166.166 0 0 0 .188.519.166.166 0 0 0 .179.458a.082.082 0 0 0-.02-.032.06.06 0 0 0-.026-.013A.12.12 0 0 0 .108.41z"/></symbol><symbol id="h"><path d="M.288.159v.433A.206.206 0 0 1 .27.671.149.149 0 0 1 .252.7a.103.103 0 0 1-.025.026.142.142 0 0 1-.083.025.152.152 0 0 1-.048-.007A.13.13 0 0 1 .06.726.103.103 0 0 1 .035.7.183.183 0 0 1 0 .592V.159A.208.208 0 0 1 .035.05.13.13 0 0 1 .144 0a.128.128 0 0 1 .108.05C.259.06.265.069.27.079c.01.023.017.05.018.08M.18.592V.159A.07.07 0 0 0 .176.132.042.042 0 0 0 .165.113C.16.108.153.105.144.105a.028.028 0 0 0-.021.008.067.067 0 0 0-.015.046v.433c0 .01.001.02.004.027a.048.048 0 0 0 .01.018.028.028 0 0 0 .022.009.03.03 0 0 0 .022-.008A.07.07 0 0 0 .18.592z"/></symbol><symbol id="i"><path d="M0 0h.085c.05 0 .09.006.118.017.029.011.05.031.065.059a.301.301 0 0 1 .026.112C.298.235.3.295.3.367S.298.499.294.546a.304.304 0 0 1-.026.113.122.122 0 0 1-.065.059.33.33 0 0 1-.118.017H0V0m.108.108v.519A.112.112 0 0 0 .152.62C.163.616.172.605.177.588A.389.389 0 0 0 .187.51L.188.448V.287A1.613 1.613 0 0 0 .183.18.172.172 0 0 0 .177.148C.172.13.163.118.152.114A.13.13 0 0 0 .108.108z"/></symbol><symbol id="j"><path d="M.288.743H.18V.159A.07.07 0 0 0 .176.132.042.042 0 0 0 .165.113C.16.108.153.105.144.105a.028.028 0 0 0-.021.008.067.067 0 0 0-.015.046v.584H0V.159A.208.208 0 0 1 .035.05.13.13 0 0 1 .144 0a.128.128 0 0 1 .108.05C.259.06.265.069.27.079c.01.023.017.05.018.08v.584z"/></symbol><symbol id="k"><path d="M.288.26H.187V.159A.07.07 0 0 0 .183.132.051.051 0 0 0 .171.113C.166.108.157.105.146.105a.028.028 0 0 0-.021.008.068.068 0 0 0-.017.046v.433a.352.352 0 0 0 .005.027.062.062 0 0 0 .011.018.028.028 0 0 0 .022.009c.011 0 .02-.003.025-.008A.064.064 0 0 0 .187.592V.491h.101v.101A.206.206 0 0 1 .27.671.149.149 0 0 1 .252.7a.103.103 0 0 1-.025.026.142.142 0 0 1-.083.025.152.152 0 0 1-.048-.007A.13.13 0 0 1 .06.726.103.103 0 0 1 .035.7.183.183 0 0 1 0 .592V.159A.208.208 0 0 1 .035.05.13.13 0 0 1 .144 0a.128.128 0 0 1 .108.05C.259.06.265.069.27.079c.01.023.017.05.018.08V.26z"/></symbol><symbol id="l"><path d="M0 .624h.102V0H.21v.624h.102v.111H0V.624z"/></symbol><symbol id="m"><path d="M0 .735V0h.108v.735H0z"/></symbol><symbol id="n"><path d="M.227.735.173.331.169.3H.163L.159.331.105.735H0L.112 0H.22l.112.735H.227z"/></symbol><symbol id="o"><path d="M0 .735V0h.247v.111H.108v.202h.1v.118h-.1v.193h.139v.111H0z"/></symbol><symbol id="p"><path d="M0 0z"/></symbol><symbol id="q"><path d="M0 .735V0h.251v.1H.108v.635H0z"/></symbol><symbol id="r"><path d="M.257.624v.111H0V0h.108v.32h.1v.111h-.1v.193h.149z"/></symbol><use xlink:href="#f" transform="matrix(141.405 0 0 -141.405 162.125 322.88)"/><use xlink:href="#g" transform="matrix(141.405 0 0 -141.405 210.483 322.88)"/><use xlink:href="#h" transform="matrix(141.405 0 0 -141.405 259.124 324.01)"/><use xlink:href="#i" transform="matrix(141.405 0 0 -141.405 308.755 322.88)"/><use xlink:href="#j" transform="matrix(141.405 0 0 -141.405 359.8 324.01)"/><use xlink:href="#k" transform="matrix(141.405 0 0 -141.405 409.29 324.01)"/><use xlink:href="#l" transform="matrix(141.405 0 0 -141.405 452.415 322.88)"/><use xlink:href="#m" transform="matrix(141.405 0 0 -141.405 501.057 322.88)"/><use xlink:href="#n" transform="matrix(141.405 0 0 -141.405 521.842 322.88)"/><use xlink:href="#o" transform="matrix(141.405 0 0 -141.405 574.3 322.88)"/><use xlink:href="#p" transform="matrix(141.405 0 0 -141.405 610.64 322.88)"/><use xlink:href="#q" transform="matrix(141.405 0 0 -141.405 636.657 322.88)"/><use xlink:href="#m" transform="matrix(141.405 0 0 -141.405 676.956 322.88)"/><use xlink:href="#r" transform="matrix(141.405 0 0 -141.405 702.125 322.88)"/><use xlink:href="#o" transform="matrix(141.405 0 0 -141.405 743.271 322.88)"/><symbol id="s"><path d="m.183 0 .05.348.006.043h.004L.249.348.299 0h.084l.099.735h-.1L.339.353.337.329H.329L.326.353.28.735H.202L.156.353.153.329H.145L.143.353.1.735H0L.099 0h.084z"/></symbol><symbol id="t"><path d="M.192.32V0H.3v.735H.192V.431H.108v.304H0V0h.108v.32h.084z"/></symbol><symbol id="u"><path d="m.201.546.106.01c0 .02-.002.042-.006.065A.196.196 0 0 1 .28.686a.124.124 0 0 1-.046.047.135.135 0 0 1-.078.018.132.132 0 0 1-.109-.056.178.178 0 0 1-.025-.056.263.263 0 0 1-.007-.06c0-.02.003-.04.009-.059A.417.417 0 0 1 .077.406 2.462 2.462 0 0 1 .159.283L.173.261a.351.351 0 0 0 .02-.043A.102.102 0 0 0 .201.18a.146.146 0 0 0-.01-.058C.184.107.173.099.157.099A.035.035 0 0 0 .13.11a.07.07 0 0 0-.015.029.161.161 0 0 0-.008.039L.106.224 0 .214C0 .187.002.16.005.134A.215.215 0 0 1 .027.066.13.13 0 0 1 .074.018.165.165 0 0 1 .157 0c.03 0 .054.005.073.015a.13.13 0 0 1 .046.041C.287.073.296.093.3.115a.337.337 0 0 1 .007.07c0 .02-.003.04-.009.058a.6.6 0 0 1-.055.113 2.7 2.7 0 0 1-.068.101.642.642 0 0 0-.047.083.142.142 0 0 0 .001.091.03.03 0 0 0 .029.021.026.026 0 0 0 .021-.01.06.06 0 0 0 .014-.024.353.353 0 0 0 .008-.072z"/></symbol><symbol id="v"><path d="M0 0h.105l.02.15h.104L.249 0h.105L.243.735H.111L0 0m.183.496L.214.264H.14l.031.232.003.019H.18L.183.496z"/></symbol><symbol id="w"><path d="M.179 0h.046l.069.462.004.031h.006V0h.1v.735H.272L.208.399.203.36H.201L.196.399.132.735H0V0h.1v.493h.006L.11.462.179 0z"/></symbol><use xlink:href="#s" transform="matrix(141.405 0 0 -141.405 238.404 449.63)"/><use xlink:href="#m" transform="matrix(141.405 0 0 -141.405 312.497 449.63)"/><use xlink:href="#l" transform="matrix(141.405 0 0 -141.405 332.292 449.63)"/><use xlink:href="#t" transform="matrix(141.405 0 0 -141.405 380.934 449.63)"/><use xlink:href="#p" transform="matrix(141.405 0 0 -141.405 427.595 449.63)"/><use xlink:href="#m" transform="matrix(141.405 0 0 -141.405 453.612 449.63)"/><use xlink:href="#u" transform="matrix(141.405 0 0 -141.405 475.67 450.76)"/><use xlink:href="#q" transform="matrix(141.405 0 0 -141.405 525.867 449.63)"/><use xlink:href="#v" transform="matrix(141.405 0 0 -141.405 561.923 449.63)"/><use xlink:href="#w" transform="matrix(141.405 0 0 -141.405 617.634 449.63)"/></g><g data-name="P"><symbol id="x"><path d="M.344.081A.315.315 0 0 0 .127 0C.077 0 .04.01.02.032.006.044 0 .065 0 .094 0 .14.035.17.104.183a.42.42 0 0 0 .079.006c.03 0 .072-.006.125-.017C.336.203.37.25.41.31.45.373.48.42.502.453A1.321 1.321 0 0 0 .671.65a.29.29 0 0 0 .19.086C.89.735.91.728.921.713a.073.073 0 0 0 .02-.05.124.124 0 0 0-.027-.067.342.342 0 0 0-.062-.069.54.54 0 0 0-.069-.05.114.114 0 0 0-.053-.02.043.043 0 0 0-.034.016C.686.483.682.494.682.504c0 .01.001.018.004.022s.006.006.009.006C.698.532.7.53.7.527.71.53.727.54.75.557a.612.612 0 0 1 .063.054c.019.018.028.03.028.035C.841.65.838.653.833.653A.067.067 0 0 1 .81.647.456.456 0 0 1 .718.576 1.307 1.307 0 0 1 .565.382 4.862 4.862 0 0 1 .51.299 3 3 0 0 0 .406.15C.573.105.693.083.764.083c.033 0 .057.004.07.013A.026.026 0 0 0 .844.1C.845.1.846.1.846.096A.566.566 0 0 0 .794.021.17.17 0 0 0 .713.007.697.697 0 0 0 .52.03a4.174 4.174 0 0 0-.176.05m-.178.03C.123.11.102.106.102.096c0-.004.004-.008.01-.01A.072.072 0 0 1 .14.08C.171.081.201.09.23.106a.512.512 0 0 1-.064.005z"/></symbol><symbol id="y"><path d="M.358.384A.075.075 0 0 0 .332.328a.084.084 0 0 0-.06-.025C.267.303.263.305.26.308a.025.025 0 0 0-.004.014l.002.016A.224.224 0 0 1 .218.32.487.487 0 0 1 .166.284C.145.268.134.256.134.248c0-.003.004-.004.012-.004.007 0 .02.003.035.008A.123.123 0 0 0 .214.26h.013A.042.042 0 0 0 .241.243C.246.237.248.231.248.226.248.222.244.216.235.21A.094.094 0 0 0 .207.192.157.157 0 0 1 .185.184C.116.146.082.12.082.105.082.08.104.067.147.067c.028 0 .055.009.083.026a.663.663 0 0 1 .1.074l.012.006c.009 0 .013-.01.013-.028A.131.131 0 0 0 .352.107.32.32 0 0 0 .135 0a.193.193 0 0 0-.08.014C.018.03 0 .056 0 .09c0 .045.031.079.093.102C.081.197.073.204.07.212a.118.118 0 0 0-.005.042c0 .02.009.04.026.06a.33.33 0 0 0 .219.1C.32.414.331.411.342.406.352.401.358.394.358.384z"/></symbol><symbol id="z"><path d="m.342.647.02-.004C.365.643.367.64.37.638A.014.014 0 0 0 .373.63a1.458 1.458 0 0 0-.05-.083.813.813 0 0 0 .054.002C.388.55.396.55.4.547.403.546.408.542.413.535A.11.11 0 0 1 .427.52C.43.516.433.51.433.504.433.498.43.492.42.487A.068.068 0 0 0 .394.479 5.412 5.412 0 0 0 .269.467a3.347 3.347 0 0 1-.11-.19.723.723 0 0 1-.076-.16.189.189 0 0 1-.002-.023c0-.013.007-.02.02-.02C.114.075.13.08.146.09.162.1.176.11.19.124A.46.46 0 0 0 .25.172C.257.172.262.158.262.128.262.112.254.098.24.085A.764.764 0 0 0 .157.021.124.124 0 0 0 .089 0a.06.06 0 0 0-.013.001.098.098 0 0 0-.058.029A.087.087 0 0 0 0 .087c0 .024.007.054.021.088.015.034.033.07.054.11.035.063.07.122.106.177L.162.46A1.073 1.073 0 0 0 .096.454H.092a.072.072 0 0 0-.028.005C.056.463.051.468.051.473c0 .006.003.011.007.016a.04.04 0 0 1 .009.012c.002.008.01.016.025.024A.085.085 0 0 0 .126.54a.55.55 0 0 0 .065.003l.044.002a1.011 1.011 0 0 0 .074.099l.01.002.023.002z"/></symbol><symbol id="A"><path d="M.101.227C.11.242.125.25.148.25S.182.244.182.232a.227.227 0 0 0-.03-.074A.866.866 0 0 0 .089.05C.064.017.047 0 .036 0 .032 0 .025.003.015.01.005.017 0 .023 0 .03c0 .012.034.078.101.197z"/></symbol><symbol id="B"><path d="M.064.116V.108C.063.1.066.093.072.087.079.08.085.078.09.078c.039 0 .073.006.103.018C.223.107.24.119.24.13c0 .005-.006.01-.017.014A.423.423 0 0 1 .167.16a1.855 1.855 0 0 0-.084.024.109.109 0 0 0-.021.012.055.055 0 0 0-.023.048c0 .022.008.043.024.064.015.02.035.039.06.054a.515.515 0 0 0 .212.073C.371.435.393.427.402.412A.043.043 0 0 0 .406.393V.39A.065.065 0 0 0 .395.35.092.092 0 0 0 .36.322.09.09 0 0 0 .322.31c-.009 0-.015 0-.017.002a.021.021 0 0 0-.006.005.013.013 0 0 1-.007.005C.29.323.29.326.29.33s.002.008.005.012A.04.04 0 0 1 .3.355.309.309 0 0 1 .13.278C.121.268.115.261.115.256.115.25.122.248.137.245A.72.72 0 0 0 .27.21.102.102 0 0 0 .314.177.063.063 0 0 0 .326.143c0-.02-.008-.04-.025-.059A.32.32 0 0 0 .102 0C.065 0 .038.006.023.018A.052.052 0 0 0 0 .06c0 .016.004.031.012.045.009.014.02.021.032.021.013 0 .02-.003.02-.01z"/></symbol><symbol id="C"><path d="M0 0z"/></symbol><symbol id="D"><path d="M.413.713A6.032 6.032 0 0 1 .212.389a.251.251 0 0 0 .09.022h.02a.073.073 0 0 0 .02-.006.063.063 0 0 0 .023-.013.072.072 0 0 0 .023-.057.196.196 0 0 0-.02-.08.431.431 0 0 0-.054-.088A.681.681 0 0 0 .24.085.382.382 0 0 0 .153.024.19.19 0 0 0 .067 0C.055 0 .04.008.024.024A.085.085 0 0 0 0 .087c0 .026.011.066.034.121.022.055.05.11.081.167A5.288 5.288 0 0 0 .3.672.68.68 0 0 0 .342.73c.005.005.014.01.028.013A.132.132 0 0 0 .406.75c.01 0 .015-.005.015-.014A.045.045 0 0 0 .413.713M.28.244C.294.268.3.29.3.308.3.328.295.337.282.337A.166.166 0 0 1 .226.32.242.242 0 0 0 .183.305C.18.305.175.308.17.314.105.2.074.127.074.095c0-.014.004-.022.014-.022.022 0 .055.019.097.056a.449.449 0 0 1 .096.115z"/></symbol><symbol id="E"><path d="m.496.82.01.002C.51.822.513.818.515.809A.067.067 0 0 0 .522.792C.521.789.518.784.511.775L.373.563a.504.504 0 0 0 .15.107C.54.68.557.683.573.683A.049.049 0 0 0 .612.667.053.053 0 0 0 .627.63.167.167 0 0 0 .614.573.493.493 0 0 0 .527.424a.608.608 0 0 0-.065-.07.304.304 0 0 0-.074-.05.165.165 0 0 0-.07-.02C.277.284.257.303.257.34A12.065 12.065 0 0 1 .045.007C.04.002.038 0 .036 0a.025.025 0 0 0-.011.004.06.06 0 0 0-.016.015.046.046 0 0 0-.009.03c0 .013.004.026.012.04L.265.5C.391.704.46.81.47.815a.032.032 0 0 0 .017.006h.01M.538.596c0 .007-.003.01-.01.01C.513.606.476.58.419.526A1.246 1.246 0 0 1 .283.376C.29.367.303.362.32.362c.017 0 .038.009.065.027a.42.42 0 0 1 .13.14.14.14 0 0 1 .024.067z"/></symbol><symbol id="F"><path d="M.223.267C.3.354.365.397.42.397A.045.045 0 0 0 .452.387.04.04 0 0 0 .465.355C.465.342.456.321.438.291a.943.943 0 0 0-.05-.075C.38.206.371.2.36.2a.029.029 0 0 0-.024.011.043.043 0 0 0-.008.027c0 .022.012.048.036.076C.352.315.325.294.283.252a1.569 1.569 0 0 1-.205-.23C.067.007.058 0 .051 0a.084.084 0 0 0-.027.006.1.1 0 0 0-.021.01C0 .018 0 .021 0 .026c0 .004.001.01.004.016A10.465 10.465 0 0 0 .2.372C.215.39.24.398.274.398.282.399.286.394.286.384.286.37.272.34.244.298l-.02-.03z"/></symbol><symbol id="G"><path d="M.352.385c.01 0 .02-.004.03-.013C.391.363.396.35.396.332a.187.187 0 0 0-.02-.07.468.468 0 0 0-.051-.089A.744.744 0 0 0 .252.09.385.385 0 0 0 .167.025.178.178 0 0 0 .083 0a.08.08 0 0 0-.06.023A.092.092 0 0 0 0 .09c0 .029.007.06.02.094a.34.34 0 0 0 .054.09.52.52 0 0 0 .071.071c.053.043.1.064.14.064.018 0 .031-.004.04-.013C.328.392.33.389.33.387V.384l.022.001M.302.32H.3C.287.32.282.33.282.345a.264.264 0 0 1-.075-.04.361.361 0 0 1-.07-.07C.096.18.074.136.074.1.074.08.08.072.094.072c.013 0 .033.01.06.027a.577.577 0 0 1 .136.16c.013.023.02.04.02.048C.31.316.306.32.301.32z"/></symbol><symbol id="H"><path d="M.638.749A.019.019 0 0 0 .653.743.018.018 0 0 0 .658.731a.06.06 0 0 0-.01-.023A3.456 3.456 0 0 0 .552.551 4.356 4.356 0 0 1 .378.247a.585.585 0 0 1-.063-.15V.091C.315.08.32.072.33.072c.01 0 .021.005.035.014.014.01.026.019.036.03a1.482 1.482 0 0 1 .051.051.013.013 0 0 0 .009.003C.466.17.47.167.47.16a.134.134 0 0 0 0-.054A.246.246 0 0 0 .41.039.147.147 0 0 0 .318 0C.269 0 .245.02.245.062c0 .026.01.06.029.101a.624.624 0 0 0-.08-.087C.142.03.097.009.06.009.041.01.025.017.015.031A.113.113 0 0 0 0 .094c0 .028.01.06.032.1a.441.441 0 0 0 .187.18c.04.02.075.031.108.031C.337.405.35.4.364.386c.01.015.027.045.052.09.08.135.133.217.158.246C.588.74.61.75.638.75M.334.34A.37.37 0 0 1 .082.1c0-.01.002-.016.007-.016.02 0 .068.044.145.13.038.044.072.086.1.126z"/></symbol><symbol id="I"><path d="M.444.173C.45.173.454.17.455.16A.214.214 0 0 0 .457.13.052.052 0 0 0 .454.11.248.248 0 0 0 .392.042a.147.147 0 0 0-.09-.04.082.082 0 0 0-.05.017C.237.029.23.048.23.074a.16.16 0 0 0 .021.078C.171.05.107 0 .061 0a.056.056 0 0 0-.044.02A.062.062 0 0 0 0 .06c0 .014.002.028.006.043a.462.462 0 0 0 .071.156l.037.064A.56.56 0 0 0 .15.382c.01.013.02.02.03.02C.19.401.198.397.206.39.213.382.216.376.216.371A.347.347 0 0 0 .184.305.88.88 0 0 1 .087.102c0-.005.002-.008.005-.008.016 0 .055.034.117.102a.942.942 0 0 1 .108.13l.028.048c.01.013.017.021.021.024A.103.103 0 0 0 .43.412C.43.412.433.41.436.404A.03.03 0 0 0 .439.392.587.587 0 0 0 .4.319 2.676 2.676 0 0 1 .362.252.502.502 0 0 1 .305.097c0-.014.005-.02.015-.02.02.002.042.017.069.045A1.287 1.287 0 0 1 .436.17a.012.012 0 0 0 .008.003z"/></symbol><symbol id="J"><path d="M.326.126a.463.463 0 0 1 .05.037C.381.17.386.171.391.171c.006 0 .01-.007.01-.022S.393.119.378.1A.193.193 0 0 0 .326.058.49.49 0 0 0 .133 0 .142.142 0 0 0 .04.033.108.108 0 0 0 0 .121a.24.24 0 0 0 .027.108.34.34 0 0 0 .167.16.268.268 0 0 0 .11.026A.079.079 0 0 0 .353.4.048.048 0 0 0 .373.358C.373.341.364.32.347.295.329.27.312.258.294.258c-.02 0-.031.01-.031.03 0 .005.005.015.014.028.01.013.015.022.015.027C.292.348.29.35.287.35A.113.113 0 0 1 .229.332.501.501 0 0 1 .125.247.172.172 0 0 1 .077.132c0-.016.005-.03.015-.042C.102.08.119.073.144.073a.33.33 0 0 1 .182.053z"/></symbol><symbol id="K"><path d="M.343.556C.343.538.335.52.317.5.3.481.282.472.263.472c-.018 0-.028.01-.028.03C.235.52.243.54.26.556a.074.074 0 0 0 .054.027.03.03 0 0 0 .021-.007.027.027 0 0 0 .008-.02M.264.13A.054.054 0 0 0 .261.109a.185.185 0 0 0-.076-.08A.19.19 0 0 0 .095 0a.094.094 0 0 0-.067.026C.009.043 0 .06 0 .079a.19.19 0 0 0 .027.078C.045.19.063.222.08.25a.345.345 0 0 1 .026.047c0 .003-.003.008-.01.015C.091.32.087.325.087.329c0 .003.007.012.02.026.014.015.03.03.05.043C.177.413.19.42.2.42.211.42.221.415.23.406.237.397.241.39.241.381A2.125 2.125 0 0 0 .098.125a.077.077 0 0 1-.01-.033C.088.08.096.075.111.075S.14.08.157.09C.174.1.187.112.2.125c.03.032.048.049.052.049C.26.174.264.159.264.13z"/></symbol><symbol id="L"><path d="M.415.393A.226.226 0 0 0 .377.294a.822.822 0 0 0-.096-.13.807.807 0 0 0-.125-.116C.112.016.078 0 .053 0a.054.054 0 0 0-.036.015C.006.025 0 .04 0 .06c0 .022.01.055.03.101a.95.95 0 0 0 .06.116C.073.266.062.26.058.26.055.26.05.264.044.272S.036.287.036.292c0 .004 0 .008.002.01.064.072.11.107.136.107A.04.04 0 0 0 .202.4a.03.03 0 0 0 .01-.023A.301.301 0 0 0 .18.297 16.388 16.388 0 0 1 .113.166.284.284 0 0 1 .08.083C.08.081.081.08.083.08c.008 0 .031.017.068.05a.82.82 0 0 1 .152.182C.32.342.329.361.329.37a.04.04 0 0 1-.006.022.038.038 0 0 0-.005.02c0 .007.005.015.014.023.01.009.022.013.037.013C.4.448.415.43.415.393z"/></symbol><use xlink:href="#x" transform="matrix(32.99185 0 0 -32.99185 365.472 152.362)" fill="#363633"/><use xlink:href="#y" transform="matrix(32.99185 0 0 -32.99185 391.592 152.33)" fill="#363633"/><use xlink:href="#z" transform="matrix(32.99185 0 0 -32.99185 402.28 152.314)" fill="#363633"/><use xlink:href="#A" transform="matrix(32.99185 0 0 -32.99185 415.579 137.059)" fill="#363633"/><use xlink:href="#B" transform="matrix(32.99185 0 0 -32.99185 414.862 152.298)" fill="#363633"/><use xlink:href="#C" transform="matrix(32.99185 0 0 -32.99185 426.001 151.702)" fill="#363633"/><use xlink:href="#D" transform="matrix(32.99185 0 0 -32.99185 433.162 152.233)" fill="#363633"/><use xlink:href="#y" transform="matrix(32.99185 0 0 -32.99185 444.736 152.33)" fill="#363633"/><use xlink:href="#C" transform="matrix(32.99185 0 0 -32.99185 454.619 151.702)" fill="#363633"/><use xlink:href="#E" transform="matrix(32.99185 0 0 -32.99185 454.729 161.641)" fill="#363633"/><use xlink:href="#F" transform="matrix(32.99185 0 0 -32.99185 472.613 151.734)" fill="#363633"/><use xlink:href="#G" transform="matrix(32.99185 0 0 -32.99185 485.234 152.137)" fill="#363633"/><use xlink:href="#H" transform="matrix(32.99185 0 0 -32.99185 496.824 152.266)" fill="#363633"/><use xlink:href="#I" transform="matrix(32.99185 0 0 -32.99185 509.897 152.362)" fill="#363633"/><use xlink:href="#J" transform="matrix(32.99185 0 0 -32.99185 523.34 152.298)" fill="#363633"/><use xlink:href="#z" transform="matrix(32.99185 0 0 -32.99185 535.123 152.314)" fill="#363633"/><use xlink:href="#K" transform="matrix(32.99185 0 0 -32.99185 541.236 152.362)" fill="#363633"/><use xlink:href="#L" transform="matrix(32.99185 0 0 -32.99185 548.172 152.266)" fill="#363633"/><use xlink:href="#y" transform="matrix(32.99185 0 0 -32.99185 559.36 152.33)" fill="#363633"/></g><g data-name="P"><symbol id="M"><path d="M.146.525C.135.518.129.51.129.5c0-.01.008-.014.022-.014.006 0 .014.002.024.005C.177.49.178.487.178.48s0-.01-.002-.012C.142.444.114.433.09.433c-.023 0-.04.006-.05.02a.079.079 0 0 0-.016.05c0 .021.011.043.035.067a.35.35 0 0 0 .093.065c.039.02.087.037.145.05.058.013.123.02.195.02a.354.354 0 0 0 .18-.043C.724.634.748.602.748.566a.194.194 0 0 0-.039-.11A.389.389 0 0 0 .614.36.542.542 0 0 0 .488.292.354.354 0 0 0 .364.266.097.097 0 0 0 .279.31 14.18 14.18 0 0 1 .095.016C.088.008.08.004.073.004L.049 0 .037.001H.03C.009.001 0 .007 0 .019c0 .015.032.073.096.173a8.762 8.762 0 0 0 .281.41c.01.01.018.015.025.017.007.002.02.003.035.003h.025c.004 0 .006-.004.006-.01C.468.604.468.6.466.597A6.17 6.17 0 0 1 .31.36.018.018 0 0 1 .323.35.095.095 0 0 1 .343.35h.014c.03 0 .062.007.097.021a.415.415 0 0 1 .158.115C.63.507.639.526.639.542S.634.572.624.584a.099.099 0 0 1-.04.03.312.312 0 0 1-.121.02.511.511 0 0 1-.171-.037.575.575 0 0 1-.146-.072z"/></symbol><symbol id="N"><path d="M.317.092c0-.014.01-.021.03-.021.01 0 .023.005.039.015.016.01.03.022.043.034.034.034.053.05.057.05C.495.17.5.16.5.135.499.11.491.093.476.084A.387.387 0 0 0 .368.007.138.138 0 0 0 .321 0 .08.08 0 0 0 .27.023a.068.068 0 0 0-.026.053.19.19 0 0 0 .017.072c.01.026.022.05.033.068l.043.067A.2.2 0 0 1 .364.33C.352.33.325.31.283.268A1.802 1.802 0 0 1 .08.037C.067.023.06.016.052.016a.084.084 0 0 0-.028.006.121.121 0 0 0-.021.01C0 .034 0 .037 0 .041l.003.014.007.014.01.018.03.05a9.439 9.439 0 0 0 .15.25c.015.019.04.028.074.028C.282.415.286.41.286.4.286.385.272.356.244.314L.224.283a.468.468 0 0 0 .142.119.13.13 0 0 0 .05.012.051.051 0 0 0 .037-.012.036.036 0 0 0 .013-.028.085.085 0 0 0-.01-.035 1.476 1.476 0 0 0-.083-.13A.522.522 0 0 1 .317.09z"/></symbol><symbol id="O"><path d="M.182.137A.806.806 0 0 0 .14.067.229.229 0 0 0 .105.024C.091.01.08.003.07.002A.167.167 0 0 0 .053 0C.023 0 .008.015.008.045c0 .036.018.077.055.125a.613.613 0 0 0 .053.058L.15.263.224.4A.804.804 0 0 0 .137.316.152.152 0 0 0 .06.281H.056A.066.066 0 0 0 .02.293C.006.302 0 .316 0 .337c0 .03.008.06.025.09a6.622 6.622 0 0 0 .07.12.731.731 0 0 1 .037.063C.144.634.154.651.16.661c.007.01.013.016.019.016S.192.673.2.666C.211.658.215.65.215.64A.674.674 0 0 0 .151.508.648.648 0 0 1 .087.376C.087.373.09.372.091.372.101.372.12.384.15.41a1.1 1.1 0 0 1 .217.245.213.213 0 0 1 .006.008.052.052 0 0 0 .013.012.017.017 0 0 0 .012.005.1.1 0 0 0 .02-.003C.427.674.431.672.433.669A.113.113 0 0 1 .44.663C.442.66.444.656.444.653A.03.03 0 0 0 .44.64 4.671 4.671 0 0 1 .227.263c.049.041.119.103.209.185a.017.017 0 0 0 .01.004c.01 0 .015-.015.015-.046C.461.396.46.39.457.388A2.239 2.239 0 0 1 .182.137z"/></symbol><symbol id="P"><path d="M.676.277C.686.277.69.265.69.242A.157.157 0 0 0 .685.196.239.239 0 0 0 .617.11.579.579 0 0 0 .5.032.245.245 0 0 0 .395 0a.043.043 0 0 0-.033.015.058.058 0 0 0-.013.04c0 .029.016.073.05.133.033.06.073.121.12.186A2.422 2.422 0 0 0 .265.107a.69.69 0 0 0-.07-.054C.146.021.108.005.08.005.05.005.03.013.02.028A.086.086 0 0 0 0 .081c0 .056.033.135.099.237.066.103.126.186.182.25C.234.529.2.508.184.508c-.018 0-.031.005-.04.016A.058.058 0 0 0 .131.56c0 .014.006.027.02.04.012.011.022.018.028.018.006 0 .009 0 .009-.002a.043.043 0 0 0-.007-.01C.176.6.173.595.173.592.173.591.175.59.18.59c.012 0 .04.013.083.038.042.026.079.051.11.076C.38.71.388.714.4.714.41.714.42.71.43.706c.001.002.004.001.009 0A.053.053 0 0 0 .454.693C.458.69.46.684.46.681A.02.02 0 0 0 .457.669 7.361 7.361 0 0 1 .202.327C.13.219.096.149.096.117.096.105.1.1.11.1S.147.118.19.154c.123.1.294.276.515.528.009.01.017.014.025.014h.004a.16.16 0 0 0 .04.003C.809.7.826.693.826.681.825.676.82.667.81.654a9.849 9.849 0 0 1-.29-.43.323.323 0 0 1-.047-.106L.49.125c.028.015.06.038.098.07a.78.78 0 0 1 .09.082z"/></symbol><symbol id="Q"><path d="M.4.388C.425.388.437.38.437.363c0-.01-.002-.016-.006-.02A1.086 1.086 0 0 1 .358.209a.437.437 0 0 1-.034-.11c0-.017.005-.026.014-.026.01 0 .022.004.035.013l.036.03a.948.948 0 0 1 .048.052C.459.17.462.17.466.17.472.17.476.166.477.156A.214.214 0 0 0 .48.127.052.052 0 0 0 .476.106.237.237 0 0 0 .414.039C.382.013.353 0 .326 0 .3 0 .281.008.27.024A.084.084 0 0 0 .25.077c0 .02.003.036.01.05A.418.418 0 0 0 .167.04C.132.014.103.002.08.002a.075.075 0 0 0-.054.02A.09.09 0 0 0 0 .091C0 .12.007.15.02.18A.32.32 0 0 0 .072.26a.513.513 0 0 0 .07.068.25.25 0 0 0 .15.063.092.092 0 0 0 .043-.009C.346.377.353.37.356.361a.071.071 0 0 0 .02.022A.049.049 0 0 0 .4.388M.335.334C.279.334.222.304.162.241a.417.417 0 0 1-.058-.08.169.169 0 0 1-.027-.063c0-.011.003-.017.01-.017a.763.763 0 0 1 .16.133l.088.12z"/></symbol><symbol id="R"><path d="M.257.325A2.35 2.35 0 0 1 .072.31H.071C.064.31.06.314.06.323c0 .008.005.02.015.034a.07.07 0 0 0 .038.03.182.182 0 0 0 .05.007C.238.394.3.399.353.407l.014.005A.068.068 0 0 0 .39.417c.006 0 .012-.004.018-.01A.042.042 0 0 0 .417.378c0-.011-.003-.02-.01-.025A.074.074 0 0 0 .377.338C.233.228.145.142.11.082c.011.003.038.009.082.017a.64.64 0 0 1 .2.054.025.025 0 0 0 .013-.005C.41.145.412.13.412.106a.054.054 0 0 0-.01-.027.053.053 0 0 0-.023-.021A1.314 1.314 0 0 0 .238.03 3.123 3.123 0 0 0 .052 0a.196.196 0 0 0-.025.001.039.039 0 0 0-.016.007L.005.014C.002.017 0 .026 0 .04 0 .053 0 .06.002.064a.67.67 0 0 0 .126.155 2.334 2.334 0 0 0 .13.106z"/></symbol><symbol id="S"><path d="M.064.148.058.135c0-.01.013-.018.04-.027A.288.288 0 0 1 .185.095.501.501 0 0 1 .46.187c.019.015.028.028.028.04C.487.24.47.252.438.264S.358.29.296.305A.37.37 0 0 0 .16.36a.099.099 0 0 0-.043.08c0 .032.011.063.034.092A.335.335 0 0 0 .24.609a.827.827 0 0 0 .12.06.67.67 0 0 0 .249.054c.03 0 .055-.002.078-.008C.729.705.75.692.75.675A.09.09 0 0 0 .747.641.05.05 0 0 0 .739.63 314.186 314.186 0 0 1 .726.62C.713.607.674.6.61.597A.164.164 0 0 1 .573.593.01.01 0 0 0 .567.591L.563.595C.56.598.56.602.56.608c0 .006.006.017.019.032A.634.634 0 0 1 .25.5C.229.48.218.467.218.458.218.451.22.444.225.44.24.424.277.409.34.393a.879.879 0 0 0 .129-.04C.489.343.507.333.52.324A.164.164 0 0 0 .555.296a.106.106 0 0 0 .03-.069.123.123 0 0 0-.02-.066.219.219 0 0 0-.056-.06.428.428 0 0 0-.089-.05A.651.651 0 0 0 .153 0C.077 0 .029.02.008.06a.064.064 0 0 0 0 .061.058.058 0 0 0 .018.02C.04.15.05.154.056.154.062.154.064.152.064.148z"/></symbol><symbol id="T"><path d="M.465.697C.471.697.475.694.48.689A.025.025 0 0 0 .484.675.064.064 0 0 0 .475.65 1.356 1.356 0 0 0 .406.527 5.033 5.033 0 0 1 .312.364a6.085 6.085 0 0 1-.12-.219 1.74 1.74 0 0 1 .036.036c.017.017.029.025.036.025h.007a.03.03 0 0 1 .004 0A.015.015 0 0 0 .28.202.038.038 0 0 1 .285.201.012.012 0 0 0 .289.2.018.018 0 0 1 .292.196L.296.192.299.188a.113.113 0 0 1 .01-.01C.311.176.312.173.312.168.312.166.31.16.306.155A.137.137 0 0 0 .284.132.728.728 0 0 1 .266.117C.186.039.14 0 .126 0a.048.048 0 0 0-.035.015.044.044 0 0 0-.014.032c0 .038.054.147.162.328a.198.198 0 0 1 .007.013.464.464 0 0 0-.085-.074.165.165 0 0 0-.088-.035C.049.279.03.286.018.3A.094.094 0 0 0 0 .36c0 .026.007.054.022.084a.562.562 0 0 0 .203.203.263.263 0 0 0 .117.039c.03 0 .05-.01.057-.03l.01.019a.077.077 0 0 0 .027.013.107.107 0 0 0 .03.008M.372.617a.039.039 0 0 1-.024.007.169.169 0 0 1-.082-.03.437.437 0 0 1-.144-.141C.1.418.088.393.088.376c0-.007.003-.01.01-.01.014 0 .043.016.084.048a.951.951 0 0 1 .1.087.9.9 0 0 1 .091.117z"/></symbol><symbol id="U"><path d="M.863.289.867.27C.867.262.863.253.855.242A.57.57 0 0 0 .751.146C.704.109.67.09.647.09a.07.07 0 0 0-.053.02.064.064 0 0 0-.019.045c0 .02.021.065.064.134.063.103.144.222.243.36A38.18 38.18 0 0 1 .716.475 7.943 7.943 0 0 0 .367.122C.362.117.354.115.343.115A.058.058 0 0 0 .31.127C.298.137.292.146.292.157v.002a5.923 5.923 0 0 0 .249.487A3.214 3.214 0 0 1 .354.42 2.704 2.704 0 0 1 .092.016C.087.006.082 0 .074 0a.135.135 0 0 0-.031.005C.014.013 0 .027 0 .046 0 .058.024.1.072.172a5.55 5.55 0 0 0 .363.483c.093.11.153.164.18.164A.024.024 0 0 0 .627.816.026.026 0 0 1 .634.813l.003.001C.641.82.65.822.662.822A.094.094 0 0 0 .7.815C.71.81.717.805.717.798A.813.813 0 0 0 .668.705a15.425 15.425 0 0 1-.22-.398 6.151 6.151 0 0 0 .363.387c.096.092.153.138.171.138a.107.107 0 0 0 .029-.005.208.208 0 0 1 .058-.009.025.025 0 0 0 .013-.006c.004-.004.006-.007.006-.01a.013.013 0 0 0-.003-.01A9.196 9.196 0 0 1 .817.42 1.883 1.883 0 0 1 .683.203C.717.21.768.25.836.325a.085.085 0 0 0 .01.012C.85.343.856.339.858.325A.338.338 0 0 0 .863.289z"/></symbol><use xlink:href="#M" transform="matrix(32.99185 0 0 -32.99185 283.019 546.54)" fill="#363633"/><use xlink:href="#F" transform="matrix(32.99185 0 0 -32.99185 300.263 546.524)" fill="#363633"/><use xlink:href="#y" transform="matrix(32.99185 0 0 -32.99185 312.804 547.12)" fill="#363633"/><use xlink:href="#B" transform="matrix(32.99185 0 0 -32.99185 323.347 547.087)" fill="#363633"/><use xlink:href="#y" transform="matrix(32.99185 0 0 -32.99185 334.744 547.12)" fill="#363633"/><use xlink:href="#N" transform="matrix(32.99185 0 0 -32.99185 343.564 547.05)" fill="#363633"/><use xlink:href="#z" transform="matrix(32.99185 0 0 -32.99185 357.99 547.104)" fill="#363633"/><use xlink:href="#y" transform="matrix(32.99185 0 0 -32.99185 364.2 547.12)" fill="#363633"/><use xlink:href="#H" transform="matrix(32.99185 0 0 -32.99185 374.26 547.055)" fill="#363633"/><use xlink:href="#C" transform="matrix(32.99185 0 0 -32.99185 387.332 546.491)" fill="#363633"/><use xlink:href="#D" transform="matrix(32.99185 0 0 -32.99185 394.492 547.023)" fill="#363633"/><use xlink:href="#O" transform="matrix(32.99185 0 0 -32.99185 405.696 556.35)" fill="#363633"/><use xlink:href="#C" transform="matrix(32.99185 0 0 -32.99185 418.35 546.491)" fill="#363633"/><use xlink:href="#P" transform="matrix(32.99185 0 0 -32.99185 427.959 546.717)" fill="#363633"/><use xlink:href="#B" transform="matrix(32.99185 0 0 -32.99185 449.617 547.087)" fill="#363633"/><use xlink:href="#z" transform="matrix(32.99185 0 0 -32.99185 461.561 547.104)" fill="#363633"/><use xlink:href="#Q" transform="matrix(32.99185 0 0 -32.99185 467.61 547.055)" fill="#363633"/><use xlink:href="#R" transform="matrix(32.99185 0 0 -32.99185 480.554 546.926)" fill="#363633"/><use xlink:href="#C" transform="matrix(32.99185 0 0 -32.99185 492.128 546.491)" fill="#363633"/><use xlink:href="#S" transform="matrix(32.99185 0 0 -32.99185 500.916 546.959)" fill="#363633"/><use xlink:href="#Q" transform="matrix(32.99185 0 0 -32.99185 520.463 547.055)" fill="#363633"/><use xlink:href="#H" transform="matrix(32.99185 0 0 -32.99185 533.649 547.055)" fill="#363633"/><use xlink:href="#K" transform="matrix(32.99185 0 0 -32.99185 546.882 547.152)" fill="#363633"/><use xlink:href="#T" transform="matrix(32.99185 0 0 -32.99185 552.947 556.286)" fill="#363633"/><use xlink:href="#C" transform="matrix(32.99185 0 0 -32.99185 566.229 546.491)" fill="#363633"/><use xlink:href="#U" transform="matrix(32.99185 0 0 -32.99185 569.91 550.068)" fill="#363633"/><use xlink:href="#Q" transform="matrix(32.99185 0 0 -32.99185 597.995 547.055)" fill="#363633"/><use xlink:href="#N" transform="matrix(32.99185 0 0 -32.99185 609.94 547.05)" fill="#363633"/><use xlink:href="#B" transform="matrix(32.99185 0 0 -32.99185 624.22 547.087)" fill="#363633"/><use xlink:href="#I" transform="matrix(32.99185 0 0 -32.99185 635.36 547.152)" fill="#363633"/><use xlink:href="#F" transform="matrix(32.99185 0 0 -32.99185 646.982 546.524)" fill="#363633"/></g></g><clipPath id="V"><path transform="scale(.24)" d="M0 0h3906.25v108.333H0z" fill-rule="evenodd"/></clipPath><g clip-path="url(#V)"><path d="M-29-45.25h995.25V26H-29z" fill="#363633"/></g><clipPath id="W"><path transform="scale(.24)" d="M0 2720.597h3906.25v107.528H0z" fill-rule="evenodd"/></clipPath><g clip-path="url(#W)"><path d="M-29 652.943h995.25v71.25H-29z" fill="#363633"/></g></svg>