<svg xmlns="http://www.w3.org/2000/svg" viewBox="0 0 48 48"><defs><style>.cls-1{fill:#201602;}</style></defs><title>Asset 28ldpi</title><g id="Layer_2" data-name="Layer 2"><g id="layer_1-2" data-name="layer 1"><path class="cls-1" d="M47,48H1a1,1,0,0,1-1-1V1A1,1,0,0,1,1,0H47a1,1,0,0,1,1,1V47A1,1,0,0,1,47,48ZM2,46H46V2H2Z"/><path class="cls-1" d="M11,21H7a2,2,0,0,1-2-2V15a2,2,0,0,1,2-2h4a2,2,0,0,1,2,2v4A2,2,0,0,1,11,21ZM7,15v4h4V15Z"/><path class="cls-1" d="M11,32H7a2,2,0,0,1-2-2V26a2,2,0,0,1,2-2h4a2,2,0,0,1,2,2v4A2,2,0,0,1,11,32ZM7,26v4h4V26Z"/><path class="cls-1" d="M11,43H7a2,2,0,0,1-2-2V37a2,2,0,0,1,2-2h4a2,2,0,0,1,2,2v4A2,2,0,0,1,11,43ZM7,37v4h4V37Z"/><rect class="cls-1" x="4" y="4" width="2" height="2"/><rect class="cls-1" x="8" y="4" width="2" height="2"/><rect class="cls-1" x="12" y="4" width="2" height="2"/><rect class="cls-1" x="1" y="8" width="46" height="2"/><rect class="cls-1" x="16" y="16" width="27" height="2"/><rect class="cls-1" x="16" y="27" width="27" height="2"/><rect class="cls-1" x="16" y="38" width="27" height="2"/></g></g></svg>