<?xml version="1.0" encoding="UTF-8"?>
<svg xmlns="http://www.w3.org/2000/svg" xmlns:xlink="http://www.w3.org/1999/xlink" version="1.1" id="Layer_1" x="0px" y="0px" viewBox="0 0 500 350.82" style="enable-background:new 0 0 500 350.82;" xml:space="preserve">
<style type="text/css">
	.st0{fill-rule:evenodd;clip-rule:evenodd;fill:#B4CC9D;}
	.st1{fill-rule:evenodd;clip-rule:evenodd;fill:#7A8F67;}
	.st2{fill:#FFFFFF;}
	.st3{fill-rule:evenodd;clip-rule:evenodd;fill:#36351A;}
	.st4{fill-rule:evenodd;clip-rule:evenodd;fill:#706F36;}
	.st5{fill-rule:evenodd;clip-rule:evenodd;fill:#E8D969;}
	.st6{filter:url(#Adobe_OpacityMaskFilter);}
	.st7{fill:url(#SVGID_4_);}
	.st8{mask:url(#SVGID_3_);fill-rule:evenodd;clip-rule:evenodd;fill:#9E9A2E;}
	.st9{fill-rule:evenodd;clip-rule:evenodd;fill:#2B360C;}
	.st10{filter:url(#Adobe_OpacityMaskFilter_1_);}
	.st11{fill:url(#SVGID_6_);}
	.st12{mask:url(#SVGID_5_);fill-rule:evenodd;clip-rule:evenodd;fill:#9E9A2E;}
	.st13{filter:url(#Adobe_OpacityMaskFilter_2_);}
	.st14{fill:url(#SVGID_8_);}
	.st15{mask:url(#SVGID_7_);fill-rule:evenodd;clip-rule:evenodd;fill:#9E9A2E;}
	.st16{fill-rule:evenodd;clip-rule:evenodd;fill:#B39500;}
	.st17{fill:#6E6520;}
	.st18{fill-rule:evenodd;clip-rule:evenodd;fill:#473A0F;}
	.st19{fill-rule:evenodd;clip-rule:evenodd;fill:#FFB361;}
	.st20{filter:url(#Adobe_OpacityMaskFilter_3_);}
	.st21{fill:url(#SVGID_10_);}
	.st22{mask:url(#SVGID_9_);fill-rule:evenodd;clip-rule:evenodd;fill:#FFE8A1;}
	.st23{filter:url(#Adobe_OpacityMaskFilter_4_);}
	.st24{fill:url(#SVGID_12_);}
	.st25{mask:url(#SVGID_11_);fill-rule:evenodd;clip-rule:evenodd;fill:#EB6715;}
	.st26{fill:#DE3B00;}
	.st27{filter:url(#Adobe_OpacityMaskFilter_5_);}
	.st28{fill:url(#SVGID_14_);}
	.st29{mask:url(#SVGID_13_);fill-rule:evenodd;clip-rule:evenodd;fill:#F0D033;}
	.st30{filter:url(#Adobe_OpacityMaskFilter_6_);}
	.st31{fill:url(#SVGID_16_);}
	.st32{mask:url(#SVGID_15_);fill-rule:evenodd;clip-rule:evenodd;fill:#826C00;}
	.st33{filter:url(#Adobe_OpacityMaskFilter_7_);}
	.st34{fill:url(#SVGID_18_);}
	.st35{mask:url(#SVGID_17_);fill-rule:evenodd;clip-rule:evenodd;fill:#826C00;}
	.st36{filter:url(#Adobe_OpacityMaskFilter_8_);}
	.st37{fill:url(#SVGID_20_);}
	.st38{mask:url(#SVGID_19_);fill-rule:evenodd;clip-rule:evenodd;fill:#826C00;}
	.st39{filter:url(#Adobe_OpacityMaskFilter_9_);}
	.st40{fill:url(#SVGID_22_);}
	.st41{mask:url(#SVGID_21_);fill-rule:evenodd;clip-rule:evenodd;fill:#826C00;}
	.st42{fill:#4A3E01;}
	.st43{filter:url(#Adobe_OpacityMaskFilter_10_);}
	.st44{fill:url(#SVGID_24_);}
	.st45{mask:url(#SVGID_23_);fill-rule:evenodd;clip-rule:evenodd;fill:#EB6715;}
	.st46{fill:#0D0B04;}
	.st47{fill-rule:evenodd;clip-rule:evenodd;fill:#465718;}
	.st48{fill-rule:evenodd;clip-rule:evenodd;fill:#FAF5DF;}
	.st49{fill-rule:evenodd;clip-rule:evenodd;fill:#F7A34A;}
	.st50{filter:url(#Adobe_OpacityMaskFilter_11_);}
	.st51{fill:url(#SVGID_26_);}
	.st52{mask:url(#SVGID_25_);fill-rule:evenodd;clip-rule:evenodd;fill:#DE3B00;}
	.st53{fill-rule:evenodd;clip-rule:evenodd;fill:#EB6715;}
	.st54{fill-rule:evenodd;clip-rule:evenodd;fill:#C42704;}
	.st55{filter:url(#Adobe_OpacityMaskFilter_12_);}
	.st56{fill:url(#SVGID_28_);}
	.st57{mask:url(#SVGID_27_);fill-rule:evenodd;clip-rule:evenodd;fill:#EB6715;}
	.st58{filter:url(#Adobe_OpacityMaskFilter_13_);}
	.st59{fill:url(#SVGID_30_);}
	.st60{mask:url(#SVGID_29_);fill-rule:evenodd;clip-rule:evenodd;fill:#FFE8A1;}
	.st61{fill-rule:evenodd;clip-rule:evenodd;fill:#36261A;}
	.st62{filter:url(#Adobe_OpacityMaskFilter_14_);}
	.st63{fill:url(#SVGID_32_);}
	.st64{mask:url(#SVGID_31_);fill-rule:evenodd;clip-rule:evenodd;fill:#DBCFAB;}
	.st65{filter:url(#Adobe_OpacityMaskFilter_15_);}
	.st66{fill:url(#SVGID_34_);}
	.st67{mask:url(#SVGID_33_);fill-rule:evenodd;clip-rule:evenodd;fill:#EB6715;}
	.st68{filter:url(#Adobe_OpacityMaskFilter_16_);}
	.st69{fill:url(#SVGID_36_);}
	.st70{mask:url(#SVGID_35_);fill-rule:evenodd;clip-rule:evenodd;fill:#EB6715;}
	.st71{filter:url(#Adobe_OpacityMaskFilter_17_);}
	.st72{fill:url(#SVGID_38_);}
	.st73{mask:url(#SVGID_37_);fill-rule:evenodd;clip-rule:evenodd;fill:#EB6715;}
	.st74{filter:url(#Adobe_OpacityMaskFilter_18_);}
	.st75{fill:url(#SVGID_40_);}
	.st76{mask:url(#SVGID_39_);fill-rule:evenodd;clip-rule:evenodd;fill:#2B360C;}
	.st77{filter:url(#Adobe_OpacityMaskFilter_19_);}
	.st78{fill:url(#SVGID_42_);}
	.st79{mask:url(#SVGID_41_);fill-rule:evenodd;clip-rule:evenodd;fill:#2B360C;}
	.st80{filter:url(#Adobe_OpacityMaskFilter_20_);}
	.st81{fill:url(#SVGID_44_);}
	.st82{mask:url(#SVGID_43_);fill-rule:evenodd;clip-rule:evenodd;fill:#798216;}
	.st83{filter:url(#Adobe_OpacityMaskFilter_21_);}
	.st84{fill:url(#SVGID_46_);}
	.st85{mask:url(#SVGID_45_);fill-rule:evenodd;clip-rule:evenodd;fill:#2B360C;}
	.st86{filter:url(#Adobe_OpacityMaskFilter_22_);}
	.st87{fill:url(#SVGID_48_);}
	.st88{mask:url(#SVGID_47_);fill-rule:evenodd;clip-rule:evenodd;fill:#2B360C;}
	.st89{filter:url(#Adobe_OpacityMaskFilter_23_);}
	.st90{fill:url(#SVGID_50_);}
	.st91{mask:url(#SVGID_49_);fill-rule:evenodd;clip-rule:evenodd;fill:#798216;}
	.st92{filter:url(#Adobe_OpacityMaskFilter_24_);}
	.st93{fill:url(#SVGID_52_);}
	.st94{mask:url(#SVGID_51_);fill-rule:evenodd;clip-rule:evenodd;fill:#DE3B00;}
	.st95{filter:url(#Adobe_OpacityMaskFilter_25_);}
	.st96{fill:url(#SVGID_54_);}
	.st97{mask:url(#SVGID_53_);fill-rule:evenodd;clip-rule:evenodd;fill:#EB6715;}
	.st98{filter:url(#Adobe_OpacityMaskFilter_26_);}
	.st99{fill:url(#SVGID_56_);}
	.st100{mask:url(#SVGID_55_);fill-rule:evenodd;clip-rule:evenodd;fill:#FFE8A1;}
	.st101{filter:url(#Adobe_OpacityMaskFilter_27_);}
	.st102{fill:url(#SVGID_58_);}
	.st103{mask:url(#SVGID_57_);fill-rule:evenodd;clip-rule:evenodd;fill:#DBCFAB;}
	.st104{filter:url(#Adobe_OpacityMaskFilter_28_);}
	.st105{fill:url(#SVGID_60_);}
	.st106{mask:url(#SVGID_59_);fill-rule:evenodd;clip-rule:evenodd;fill:#2B360C;}
	.st107{filter:url(#Adobe_OpacityMaskFilter_29_);}
	.st108{fill:url(#SVGID_62_);}
	.st109{mask:url(#SVGID_61_);fill-rule:evenodd;clip-rule:evenodd;fill:#798216;}
	.st110{filter:url(#Adobe_OpacityMaskFilter_30_);}
	.st111{fill:url(#SVGID_64_);}
	.st112{mask:url(#SVGID_63_);fill-rule:evenodd;clip-rule:evenodd;fill:#EB6715;}
	.st113{fill:#1D2408;}
	.st114{filter:url(#Adobe_OpacityMaskFilter_31_);}
	.st115{fill:url(#SVGID_66_);}
	.st116{mask:url(#SVGID_65_);fill-rule:evenodd;clip-rule:evenodd;fill:#F0D033;}
	.st117{filter:url(#Adobe_OpacityMaskFilter_32_);}
	.st118{fill:url(#SVGID_68_);}
	.st119{mask:url(#SVGID_67_);fill-rule:evenodd;clip-rule:evenodd;fill:#F0D033;}
	.st120{fill-rule:evenodd;clip-rule:evenodd;fill:#702C02;}
	.st121{fill-rule:evenodd;clip-rule:evenodd;fill:#8C3D00;}
	.st122{fill-rule:evenodd;clip-rule:evenodd;fill:#A65605;}
	.st123{fill-rule:evenodd;clip-rule:evenodd;fill:#C98116;}
	.st124{fill-rule:evenodd;clip-rule:evenodd;fill:#FFF0C2;}
	.st125{fill-rule:evenodd;clip-rule:evenodd;fill:#E3AE5F;}
	.st126{fill:#702C02;}
	.st127{fill:#E3AE5F;}
	.st128{fill-rule:evenodd;clip-rule:evenodd;fill:#FFFFFF;}
	.st129{fill:none;stroke:#008462;stroke-miterlimit:10;}
	.st130{fill:#008462;}
</style>
<g>
	<g>
		<rect x="295.55" y="114.26" class="st0" width="89.01" height="66.88"></rect>
		<polygon class="st1" points="295.55,181.14 304.71,181.14 304.71,121.54 384.56,121.54 384.56,114.26 295.55,114.26   "></polygon>
		<path class="st2" d="M124.14,208.34v15.48h34.88v-15.48h-33.88H124.14z M126.13,210.34h30.89v11.49h-30.89V210.34z"></path>
		<path class="st3" d="M475.3,323.73c-25-23.86-49.87-47.67-74.9-71.47c-100.34,0-200.59,0-300.9,0    c-24.86,23.76-49.81,47.51-74.68,71.29c-0.6-0.16-1.99,0.13-4.16,0.85c-0.85,0.87-0.85,2.25,0,3.12c152.88,0,305.72,0,458.63,0    c0.9-0.8,0.9-2.32,0-3.12C477.45,323.91,476.12,323.69,475.3,323.73z"></path>
		<path class="st4" d="M400.41,249.14c-100.34,0-200.59,0-300.9,0c-26.25,25.08-52.59,50.17-78.84,75.27c152.88,0,305.72,0,458.63,0    C452.95,299.28,426.76,274.2,400.41,249.14z"></path>
		<g>
			<defs>
				<path id="SVGID_1_" d="M193.12,299.29c70.16,0.11,70.16,10.86,0,10.97C122.97,310.15,122.97,299.4,193.12,299.29 M321.22,244.69      c44.06,0,79.77,10.57,79.77,23.6c-2.91,28.73-125.8,28.71-150.05,11.17c-14.03,18.75-161.74,19.99-164.01-4.55      c2.09-22.99,131.75-22.67,155.13-9.54C246.91,253.72,280.5,244.69,321.22,244.69z"></path>
			</defs>
			<use xlink:href="#SVGID_1_" style="overflow:visible;fill-rule:evenodd;clip-rule:evenodd;fill:#36351A;"></use>
			<clipPath id="SVGID_2_">
				<use xlink:href="#SVGID_1_" style="overflow:visible;"></use>
			</clipPath>
		</g>
		<path class="st2" d="M429.56,284.73c-13.68-13.09-27.45-26.18-41.15-39.24c-0.1,0-276.77,0-276.9,0    c-23.65,22.6-49.82,47.51-73.86,70.52h424.67C451.38,305.59,440.45,295.14,429.56,284.73z M41.1,314.62    c24.18-23.13,46.36-44.24,70.95-67.74c68.74,0,207.08,0,275.8,0c23.7,22.54,47.31,45.15,70.99,67.74H41.1z"></path>
		<path class="st5" d="M295.25,203c-50.99-7.64-74.43,4.24-70.33,35.64c20.34,28.32,16.41,31.28,33.92,37.01    c1.64-1.97,5.55-2.51,11.75-1.62c37.96-4.79,48.9-7.09,94.86-6.02C416,262.27,407.31,180.17,295.25,203z"></path>
		<defs>
			<filter id="Adobe_OpacityMaskFilter" filterUnits="userSpaceOnUse" x="302.2" y="215.93" width="92.28" height="49.97">
				<feColorMatrix type="matrix" values="1 0 0 0 0  0 1 0 0 0  0 0 1 0 0  0 0 0 1 0"></feColorMatrix>
			</filter>
		</defs>
		<mask maskUnits="userSpaceOnUse" x="302.2" y="215.93" width="92.28" height="49.97" id="SVGID_3_">
			<g class="st6">
				
					<linearGradient id="SVGID_4_" gradientUnits="userSpaceOnUse" x1="-515.5908" y1="505.2462" x2="-408.2097" y2="530.1258" gradientTransform="matrix(1 0 0 1 798.8301 -279.4116)">
					<stop offset="0" style="stop-color:#000000"></stop>
					<stop offset="1" style="stop-color:#FFFFFF"></stop>
				</linearGradient>
				<rect x="302.2" y="215.93" class="st7" width="92.28" height="49.97"></rect>
			</g>
		</mask>
		<path class="st8" d="M382.27,222.64c-6.7-7.64-10.97-8.75-12.83-3.33c7.72,14.14-5.8,32.64-21.99,25.77    c-5.64-2.39-11.05-6.36-17.64-5.32c-13.34,2.08-12.02,17.24-27.6,15.55c4.85,2.37,10.13,3.73,15.53,3.99    c9.52,4.41,14.29,6.61,14.29,6.61s10.58,0,31.75-0.01c14.9-1.08,27.35-11.76,30.68-26.32    C394.92,235.07,390.86,229.43,382.27,222.64z"></path>
		<path class="st9" d="M106.74,147.73c-4.05,14.65-8.09,29.3-12.13,43.95c0.59,0.16,1.18,0.31,1.77,0.47    c3.7-14.74,7.41-29.47,11.11-44.22C107.24,147.86,106.99,147.79,106.74,147.73z"></path>
		<defs>
			<filter id="Adobe_OpacityMaskFilter_1_" filterUnits="userSpaceOnUse" x="225.9" y="208.36" width="31.12" height="29.14">
				<feColorMatrix type="matrix" values="1 0 0 0 0  0 1 0 0 0  0 0 1 0 0  0 0 0 1 0"></feColorMatrix>
			</filter>
		</defs>
		<mask maskUnits="userSpaceOnUse" x="225.9" y="208.36" width="31.12" height="29.14" id="SVGID_5_">
			<g class="st10">
				
					<linearGradient id="SVGID_6_" gradientUnits="userSpaceOnUse" x1="-426.2403" y1="588.3798" x2="-413.0978" y2="541.7137" gradientTransform="matrix(1 0 0 1 658.2042 -331.7443)">
					<stop offset="0" style="stop-color:#000000"></stop>
					<stop offset="1" style="stop-color:#FFFFFF"></stop>
				</linearGradient>
				<rect x="225.9" y="208.36" class="st11" width="31.12" height="29.14"></rect>
			</g>
		</mask>
		<path class="st12" d="M226.06,233.52c0.3,3.09,1.86,4.38,4.67,3.88c-2.1-2.6-2.61-6.14-1.33-9.22    c4.39-10.63,21.7-1.06,27.61-19.82c-15.17,4.69-25.24,9.64-30.21,14.85C225.94,226.57,225.69,230.07,226.06,233.52z"></path>
		<defs>
			<filter id="Adobe_OpacityMaskFilter_2_" filterUnits="userSpaceOnUse" x="258.09" y="192.47" width="97.85" height="74.89">
				<feColorMatrix type="matrix" values="1 0 0 0 0  0 1 0 0 0  0 0 1 0 0  0 0 0 1 0"></feColorMatrix>
			</filter>
		</defs>
		<mask maskUnits="userSpaceOnUse" x="258.09" y="192.47" width="97.85" height="74.89" id="SVGID_7_">
			<g class="st13">
				
					<linearGradient id="SVGID_8_" gradientUnits="userSpaceOnUse" x1="-494.4789" y1="494.4979" x2="-421.8859" y2="504.9272" gradientTransform="matrix(1 0 0 1 717.5336 -276.7212)">
					<stop offset="0" style="stop-color:#000000"></stop>
					<stop offset="1" style="stop-color:#FFFFFF"></stop>
				</linearGradient>
				<rect x="258.09" y="192.32" class="st14" width="97.85" height="75.05"></rect>
			</g>
		</mask>
		<path class="st15" d="M308.88,214.25c-4.59-25.88-40.65-29.87-50.79-5.63c11.69-5.75,25.78,1.4,28.07,13.53    c3.14,20.41-21.74,16.67-16.52,45.21c31.12-13.62,26.08-49.97,55.12-55.22c10.25-3,21.2-2.59,31.2,1.18    C331.9,192.08,316.21,192.39,308.88,214.25z"></path>
		<path class="st16" d="M220.87,163.69c-5.55-8.17-17.39-9.46-26.16-12.41c0,0-13.09,0.71-39.27,2.13    c-6.07,2.26-17.83,5.57-22.85,10.08c-10.58,9.5-9.69,30.03-12.07,43.6c6.66,0.77,10,1.16,10,1.16    c8.64,4.07,26.45,13.08,53.44,27.01c9.51,0.74,18.85,1.03,27.47-3.06c0,0-0.06-7.48-0.59-18.34c0,0,4.57-9.61,13.72-28.84    C223.98,178.94,224.1,168.65,220.87,163.69z"></path>
		<path class="st17" d="M377.62,244.57c-0.38-0.01-0.7,0.3-0.71,0.68c-0.16,8.32-4.25,16.08-11.02,20.93    c-0.74,0.51,0.08,1.67,0.81,1.13c7.12-5.1,11.42-13.27,11.59-22.03C378.31,244.9,378,244.58,377.62,244.57z"></path>
		<path class="st17" d="M343.29,264.31c-8.36-4.79-11.68-15.16-7.66-23.91c0.39-0.8-0.9-1.4-1.26-0.58    c-4.32,9.4-0.75,20.55,8.23,25.69C343.37,265.97,344.08,264.75,343.29,264.31z"></path>
		<path class="st17" d="M295.93,211.58c-7.98,2.1-14.77,6.74-19.61,13.13c-16.63,6.59-35.19-6.85-46.37,15.77    c-0.4,0.79,0.84,1.43,1.24,0.62c10.51-20.91,27.74-9.42,43.69-14.33c-2.52,3.86-4.31,8.24-5.2,12.94    c-0.17,0.87,1.21,1.15,1.36,0.25c2.49-13.13,12.32-23.66,25.24-27.04C297.15,212.71,296.81,211.33,295.93,211.58z"></path>
		<path class="st17" d="M366.48,251.17c-0.37-0.1-0.75,0.12-0.85,0.49c-0.67,2.54-1.76,4.93-3.19,7.09    c-1.43,2.16-3.22,4.09-5.3,5.69c-0.3,0.23-0.36,0.67-0.12,0.97c1.37,1.23,5.74-4.73,6.58-5.9    C364.35,258.32,368.16,251.92,366.48,251.17z"></path>
		<path class="st17" d="M326,230.96c-11.43,3.91-20.6,12.61-25.08,23.83c-0.34,0.82,0.96,1.36,1.29,0.52    c4.34-10.84,13.19-19.25,24.24-23.03C327.3,232,326.86,230.65,326,230.96z"></path>
		<path class="st17" d="M323.88,211.44c-31.49,8.89-23.57,42.42-56.68,57.16c-0.8,0.36-0.21,1.66,0.6,1.25    c33.5-14.93,25.85-48.44,56.42-57.06C325.08,212.59,324.76,211.19,323.88,211.44z"></path>
		<path class="st18" d="M228.19,234.88c-3.74-2.89-8.66-3.77-13.18-2.37c-44.1-7.09-86.98-12.89-91.08-4.94    c-13.88,2.04-20.76,19.74-9.31,29.27c6.98,6.45,16.57,10.41,23.63,18.72c0.95,1.97,1.43,2.95,1.43,2.95    c24.25,0.4,36.38,0.6,36.38,0.6c19.17-5.82,38.42-16.52,57.77-32.09C234.04,242.3,231.94,237.77,228.19,234.88z"></path>
		<path class="st19" d="M127.95,211.89c-6.5-2.13-9.75-3.19-9.75-3.19c-0.33-2.87-2.47-5.2-5.3-5.77c-2.31-1.8-3.46-2.7-3.46-2.7    c-1.11-3.16-1.66-4.74-1.66-4.74c-1.38-5.25-0.44-8.06-3.75-7.75c0-1.27,0-1.9,0-1.9c-0.04-1.61-2.06-2.56-3.32-1.56    c-0.07,0.9-0.1,1.35-0.1,1.35c-0.81-1.21-2.64-1.45-3.74-0.49c-0.94-0.88-2.55-0.76-3.35,0.24c-1.86,5.19-2.79,7.79-2.79,7.79    c-0.62,1.47-0.8,3.13-0.55,4.98c0,0,0.31,2.71,0.92,8.12c-0.2,1.94,1.32,3.18,4.56,3.73c0.52,0.95,1.49,1.58,2.57,1.66    c8.69,2.96,8.26,3.28,25.72,15.93c5.32-0.4,10.65,0.55,15.5,2.76c0,0,3.4-4.02,10.19-12.07c0,0,0.27-1.46,1.16-6.32    c-7.39-2.41-14.79-3.09-23.08-4.01C127.91,211.35,127.95,211.89,127.95,211.89z"></path>
		<defs>
			<filter id="Adobe_OpacityMaskFilter_3_" filterUnits="userSpaceOnUse" x="107.05" y="197.85" width="25.64" height="17.99">
				<feColorMatrix type="matrix" values="1 0 0 0 0  0 1 0 0 0  0 0 1 0 0  0 0 0 1 0"></feColorMatrix>
			</filter>
		</defs>
		<mask maskUnits="userSpaceOnUse" x="107.05" y="197.85" width="25.64" height="17.99" id="SVGID_9_">
			<g class="st20">
				
					<linearGradient id="SVGID_10_" gradientUnits="userSpaceOnUse" x1="-326.0945" y1="590.9369" x2="-317.852" y2="575.9278" gradientTransform="matrix(1 0 0 1 439.1892 -371.7822)">
					<stop offset="0" style="stop-color:#000000"></stop>
					<stop offset="1" style="stop-color:#FFFFFF"></stop>
				</linearGradient>
				<rect x="107.05" y="197.85" class="st21" width="25.64" height="17.93"></rect>
			</g>
		</mask>
		<path class="st22" d="M127.67,207.92c0.13,2.24,0.25,3.51,0.25,3.51c-0.27,0.21-0.41,0.32-0.41,0.32    c-6.21-2.03-9.31-3.05-9.31-3.05c-0.33-2.87-2.47-5.2-5.3-5.77c-3.71-3.21-2.88-1.2-4.29-5.07c-3.84,5.5-0.23,12.96,7.09,12.83    c1.93-0.03,3.85-0.23,5.58,0.66c3.09,2.14,4.98,6.35,9.22,3.6c2.04-1.39,3.04-4.37,1.32-6.56    C130.68,208.25,129.3,208.1,127.67,207.92z"></path>
		<defs>
			<filter id="Adobe_OpacityMaskFilter_4_" filterUnits="userSpaceOnUse" x="97.4" y="208.77" width="51.93" height="20.85">
				<feColorMatrix type="matrix" values="1 0 0 0 0  0 1 0 0 0  0 0 1 0 0  0 0 0 1 0"></feColorMatrix>
			</filter>
		</defs>
		<mask maskUnits="userSpaceOnUse" x="97.4" y="208.77" width="51.93" height="20.85" id="SVGID_11_">
			<g class="st23">
				
					<linearGradient id="SVGID_12_" gradientUnits="userSpaceOnUse" x1="-314.8095" y1="544.0276" x2="-283.1688" y2="584.4861" gradientTransform="matrix(1 0 0 1 421.3979 -346.2831)">
					<stop offset="0" style="stop-color:#000000"></stop>
					<stop offset="1" style="stop-color:#FFFFFF"></stop>
				</linearGradient>
				<rect x="97.4" y="208.77" class="st24" width="51.93" height="20.85"></rect>
			</g>
		</mask>
		<path class="st25" d="M137.77,216.67c-0.78,2.92-3.22,5.11-6.21,5.55c-7.68,1.14-7-6.86-13.01-7.21    c-2.83-0.17-5.66,1.41-7.98,0.83c-3.21-0.8-3.63-5.04-7.69-5.43c-0.88,0.08-1.76-0.19-2.46-0.73c-0.87,0.64-1.96,0.91-3.03,0.76    c0.17,0.21,0.26,0.32,0.26,0.32c5.5,2.05,8.25,3.07,8.25,3.07c13.42,9.1,20.12,13.66,20.12,13.66c4-0.03,7.97,0.69,11.7,2.13    c3.43-5.19,7.03-9.62,10.81-13.31c0,0,0.26-1.61,0.78-4.82c-4.09-1.2-8.82-2.1-14.19-2.72    C137.51,210.64,138.55,213.74,137.77,216.67z"></path>
		<path class="st26" d="M141.97,215.71c-1.57-1.46-3.73-2.14-5.85-1.82l-8.03-2.44c-0.24-0.07-0.5,0.06-0.58,0.31    c-0.07,0.24,0.06,0.5,0.31,0.58l8.13,2.47c3.9-0.71,7.79,2.62,7.33,6.65c-0.02,0.25,0.17,0.48,0.42,0.5    c0.25,0.02,0.48-0.17,0.5-0.42C144.4,219.35,143.57,217.19,141.97,215.71z"></path>
		<defs>
			<filter id="Adobe_OpacityMaskFilter_5_" filterUnits="userSpaceOnUse" x="193.48" y="151.28" width="30.43" height="24.69">
				<feColorMatrix type="matrix" values="1 0 0 0 0  0 1 0 0 0  0 0 1 0 0  0 0 0 1 0"></feColorMatrix>
			</filter>
		</defs>
		<mask maskUnits="userSpaceOnUse" x="193.48" y="151.28" width="30.43" height="24.69" id="SVGID_13_">
			<g class="st27">
				
					<linearGradient id="SVGID_14_" gradientUnits="userSpaceOnUse" x1="-413.1077" y1="616.7501" x2="-374.7004" y2="603.6293" gradientTransform="matrix(1 0 0 1 598.4688 -445.1564)">
					<stop offset="0" style="stop-color:#000000"></stop>
					<stop offset="1" style="stop-color:#FFFFFF"></stop>
				</linearGradient>
				<rect x="193.48" y="151.28" class="st28" width="30.43" height="24.69"></rect>
			</g>
		</mask>
		<path class="st29" d="M214.53,158.03c-4.18-2.56-13.25-4.82-19.82-6.75c0.05,2.47-0.36,4.93-1.22,7.25    c5.82-5.26,15.99-1.84,17.44,5.88c0.4,2.41,1.21,3.98,2.23,5.04c3.5,3.64,9.56,1.33,10.76,6.53    C223.32,168.32,221.99,161.99,214.53,158.03z"></path>
		<path class="st26" d="M105.02,204.56c-0.36-4.17-0.59-12.64-0.53-16.84c0.01-0.59-0.93-0.6-0.92,0    c-0.06,4.24,0.17,12.74,0.53,16.95c0.27,0.86,0.41,1.76,0.25,2.66c-0.04,0.25,0.14,0.49,0.39,0.53    C105.87,207.71,105.21,205.34,105.02,204.56z"></path>
		<defs>
			<filter id="Adobe_OpacityMaskFilter_6_" filterUnits="userSpaceOnUse" x="143.19" y="154.79" width="59.21" height="60.62">
				<feColorMatrix type="matrix" values="1 0 0 0 0  0 1 0 0 0  0 0 1 0 0  0 0 0 1 0"></feColorMatrix>
			</filter>
		</defs>
		<mask maskUnits="userSpaceOnUse" x="143.19" y="154.79" width="59.21" height="60.62" id="SVGID_15_">
			<g class="st30">
				
					<linearGradient id="SVGID_16_" gradientUnits="userSpaceOnUse" x1="-314.0738" y1="537.6989" x2="-347.5758" y2="572.8233" gradientTransform="matrix(1 0 0 1 505.8227 -372.4608)">
					<stop offset="0" style="stop-color:#000000"></stop>
					<stop offset="1" style="stop-color:#FFFFFF"></stop>
				</linearGradient>
				<rect x="143.21" y="154.79" class="st31" width="59.19" height="60.62"></rect>
			</g>
		</mask>
		<path class="st32" d="M192.14,191.39c-5.85-2.12-11.85,0.31-17.73,1.29c-17.45,2.92-26.27-18.16-15.96-30.42    c-1.45-2.27-2.42-4.81-2.84-7.47c-11.72,4.07-15.49,7.96-9.85,18.2c2.09,10.05,5.32,20.81,9.66,32.29    c-0.75,6.75-1.12,10.13-1.12,10.13c22.71-0.25,38.74-4.84,48.1-13.78C200.66,196.87,196.91,193.12,192.14,191.39z"></path>
		<defs>
			<filter id="Adobe_OpacityMaskFilter_7_" filterUnits="userSpaceOnUse" x="130.97" y="164.29" width="20.76" height="45.33">
				<feColorMatrix type="matrix" values="1 0 0 0 0  0 1 0 0 0  0 0 1 0 0  0 0 0 1 0"></feColorMatrix>
			</filter>
		</defs>
		<mask maskUnits="userSpaceOnUse" x="130.97" y="164.29" width="20.76" height="45.33" id="SVGID_17_">
			<g class="st33">
				
					<linearGradient id="SVGID_18_" gradientUnits="userSpaceOnUse" x1="-355.8036" y1="564.9315" x2="-334.169" y2="572.9786" gradientTransform="matrix(1 0 0 1 483.2768 -383.144)">
					<stop offset="0" style="stop-color:#000000"></stop>
					<stop offset="1" style="stop-color:#FFFFFF"></stop>
				</linearGradient>
				<rect x="130.97" y="164.29" class="st34" width="20.76" height="45.33"></rect>
			</g>
		</mask>
		<path class="st35" d="M143.43,173.68c-1.42-2.33-2.67-5.46-3.77-9.39c-3.26,2.15-3.54,6.23-1.75,9.54    c5.68,13.12-6.04,9.46-6.9,21.81c-0.29,4.09,1.18,8.11,4.04,11.06c6.01,0.48,11.13,1.46,15.36,2.92c0.88-3.14,1.32-4.7,1.32-4.7    C145.88,189.09,145.42,185.35,143.43,173.68z"></path>
		<defs>
			<filter id="Adobe_OpacityMaskFilter_8_" filterUnits="userSpaceOnUse" x="204.39" y="166.34" width="19.94" height="31.8">
				<feColorMatrix type="matrix" values="1 0 0 0 0  0 1 0 0 0  0 0 1 0 0  0 0 0 1 0"></feColorMatrix>
			</filter>
		</defs>
		<mask maskUnits="userSpaceOnUse" x="204.39" y="166.34" width="19.94" height="31.8" id="SVGID_19_">
			<g class="st36">
				
					<linearGradient id="SVGID_20_" gradientUnits="userSpaceOnUse" x1="-391.6629" y1="608.339" x2="-405.4674" y2="582.4122" gradientTransform="matrix(1 0 0 1 618.5679 -404.2826)">
					<stop offset="0" style="stop-color:#000000"></stop>
					<stop offset="1" style="stop-color:#FFFFFF"></stop>
				</linearGradient>
				<rect x="204.39" y="162.84" class="st37" width="19.94" height="35.3"></rect>
			</g>
		</mask>
		<path class="st38" d="M209.98,166.34c-0.94,2.9-1.87,5.06-2.77,6.49c-1.88,16.71-2.82,25.07-2.82,25.07    c4.4,1.21,11.05-2.01,19.94-9.65C223,177.85,207.62,178.47,209.98,166.34z"></path>
		<defs>
			<filter id="Adobe_OpacityMaskFilter_9_" filterUnits="userSpaceOnUse" x="209.98" y="162.84" width="1.05" height="3.5">
				<feColorMatrix type="matrix" values="1 0 0 0 0  0 1 0 0 0  0 0 1 0 0  0 0 0 1 0"></feColorMatrix>
			</filter>
		</defs>
		<mask maskUnits="userSpaceOnUse" x="209.98" y="162.84" width="1.05" height="3.5" id="SVGID_21_">
			<g class="st39">
				
					<linearGradient id="SVGID_22_" gradientUnits="userSpaceOnUse" x1="-391.6629" y1="608.339" x2="-405.4674" y2="582.4122" gradientTransform="matrix(1 0 0 1 618.5679 -404.2826)">
					<stop offset="0" style="stop-color:#000000"></stop>
					<stop offset="1" style="stop-color:#FFFFFF"></stop>
				</linearGradient>
				<rect x="204.39" y="162.84" class="st40" width="19.94" height="35.3"></rect>
			</g>
		</mask>
		<path class="st41" d="M211.03,162.84c-0.5,1.27-0.84,2.43-1.05,3.5C210.33,165.27,210.68,164.11,211.03,162.84z"></path>
		<path class="st42" d="M198.69,151.77c-0.38,0-0.69,0.31-0.69,0.69c0.04,6.13-2.33,11.73-6.25,15.87    c-7.65,8.74-23.16,9.49-31.6,1.52c-4.3-3.75-7.2-9.09-7.74-15.19c-0.03-0.38-0.37-0.66-0.75-0.63c-0.38,0.03-0.66,0.37-0.63,0.75    c0.58,6.47,3.65,12.14,8.21,16.12c8.96,8.45,25.41,7.67,33.52-1.61c4.16-4.39,6.68-10.33,6.63-16.82    C199.38,152.08,199.07,151.77,198.69,151.77z"></path>
		<path class="st42" d="M147.25,189.47c-1.41-5.26-2.52-10.6-3.31-16c-0.85-1.55-1.78-3.09-2.22-4.81c-0.47-1.6-0.7-3.27-0.68-4.95    c0-0.38-0.3-0.7-0.68-0.7c-2.24,0.64,1,9.45,2.24,10.81c1.6,10.79,4.42,21.33,8.45,31.48c-0.1,0.68-0.48,3.2-0.94,6.54    c-0.13,0.89,1.27,1.08,1.37,0.18c0.51-3.73,0.97-6.69,0.97-6.7C150.63,200.11,148.61,194.87,147.25,189.47z"></path>
		<path class="st42" d="M210.35,161.41c-0.38,0-0.69,0.31-0.69,0.69c0.05,3.62-1.07,7.1-2.77,10.25c0,0-3.4,25.6-3.4,25.6    c-0.05,0.38,0.22,0.73,0.6,0.78c0.38,0.05,0.73-0.22,0.78-0.6l3.38-25.46C209.34,171.21,212.54,162.09,210.35,161.41z"></path>
		<path class="st19" d="M186.75,230.98c4.37,2.58,6.56,3.86,6.56,3.86c28.49-1.7,31.17-5.99,31.82-14.83    C202.15,217.21,185.89,221.78,186.75,230.98z"></path>
		<defs>
			<filter id="Adobe_OpacityMaskFilter_10_" filterUnits="userSpaceOnUse" x="190.33" y="222.18" width="31.32" height="10.22">
				<feColorMatrix type="matrix" values="1 0 0 0 0  0 1 0 0 0  0 0 1 0 0  0 0 0 1 0"></feColorMatrix>
			</filter>
		</defs>
		<mask maskUnits="userSpaceOnUse" x="190.33" y="222.18" width="31.32" height="10.22" id="SVGID_23_">
			<g class="st43">
				
					<linearGradient id="SVGID_24_" gradientUnits="userSpaceOnUse" x1="-392.4433" y1="578.9697" x2="-385.0798" y2="565.5342" gradientTransform="matrix(1 0 0 1 592.664 -341.1442)">
					<stop offset="0" style="stop-color:#000000"></stop>
					<stop offset="1" style="stop-color:#FFFFFF"></stop>
				</linearGradient>
				<rect x="190.33" y="222.18" class="st44" width="31.32" height="10.22"></rect>
			</g>
		</mask>
		<path class="st45" d="M206.94,222.23c-6.9,2.18-10.36,3.27-10.36,3.27c-1.46,2.15-3.7,3.64-6.25,4.15    c1.52,0.79,2.97,1.71,4.33,2.76c6.98-12.31,17.52,5.66,26.99-6.84C212.7,223.05,207.8,221.94,206.94,222.23z"></path>
		<path class="st19" d="M333.28,268.29c-3.01-7.41-10-13.04-18.61-7.51c-5.51-0.03-10.94-1.34-15.86-3.81c0,0-9.41,5.69-28.23,17.06    c25.11,3.48,37.67,5.21,37.67,5.21c8.05,3.8,14.16,6.09,18.31,6.88c1.74,1.21,3.9,1.67,5.98,1.26c4.71,3.05,12-4.19,5.29-13.07    C336.28,272.28,334.52,270.6,333.28,268.29z"></path>
		<path class="st26" d="M325.69,283.94c-1.97-0.87-3.2-2.84-3.12-4.98c0.01-0.31-0.19-0.58-0.47-0.68    c-1.93-0.64-3.23-2.45-3.23-4.48c0-0.26-0.14-0.49-0.36-0.61c-1.49-0.79-2.01-2.84-1.09-4.25c0.2-0.33,0.1-0.75-0.22-0.95    c-0.33-0.2-0.75-0.1-0.96,0.22c-1.25,1.93-0.66,4.72,1.26,5.98c0.15,2.3,1.58,4.32,3.69,5.22c0.1,2.52,1.63,4.77,3.95,5.8    c0.35,0.15,0.76,0,0.91-0.36C326.2,284.5,326.04,284.09,325.69,283.94z"></path>
		<path class="st26" d="M331.26,279.13c0.04-1.4-2.7-6.04-4.21-4.6c-0.19,0.33-0.09,0.76,0.24,0.95c1.48,0.87,2.44,2.38,2.62,4.09    c0.01,0.2,0.12,0.4,0.3,0.52c1.54,1.05,2.26,2.95,1.82,4.76c-0.09,0.37,0.14,0.75,0.51,0.84c0.37,0.09,0.75-0.14,0.84-0.51    C333.94,282.91,333.1,280.55,331.26,279.13z"></path>
		<path class="st46" d="M144.17,271.68c-0.73-2.35-1.16-4.79-1.26-7.27c-2.06-2.52,0.03,6.91,0.38,7.54    c0.08,0.73,3.71,9.66,3.98,6.43C145.94,276.29,144.9,274.03,144.17,271.68z"></path>
		<path class="st46" d="M221.14,235.7c-3.76,1.4-7.8,1.88-11.79,1.4v0c-0.18-0.08-32.39,11.3-32.57,11.31    c-0.24,0.08-0.37,0.35-0.28,0.59c0.08,0.24,0.35,0.37,0.59,0.28l32.26-11.25c4.1,0.47,8.25-0.03,12.11-1.47    C222.02,236.37,221.7,235.49,221.14,235.7z"></path>
		<path class="st46" d="M219.09,242.31c-4.03,0.94-8.17,1-12.26,0.49c0,0-10,2.55-10,2.55c-0.25,0.06-0.4,0.31-0.33,0.56    c0.06,0.25,0.31,0.4,0.56,0.33l9.91-2.53C207.75,244.29,222.58,244.07,219.09,242.31z"></path>
		<path class="st19" d="M129.53,263.75c-9.79-2.26-16.77-2.9-20.92-1.92c-2.16,0.51-3.23,1.71-5.45,2.18    c-3.68,0.34-7.99,2.18-7.34,6.76c-2.53-0.45-3.72,3.27-1.4,4.38c-1.81,1.03-0.95,4,1.13,3.91c0.81,2.89,13.13-0.44,14.71-0.88    c10.98-0.46,13.29-1.55,27.99-2.63c-2.12-3.51-3.26-7.52-3.28-11.62C131.34,263.82,129.53,263.75,129.53,263.75z"></path>
		<path class="st47" d="M389.5,98.96c-6.71-5.15-33.64-13.45-41.27-16.22c-34.29,4.51-51.43,6.76-51.43,6.76    c-6.56,3.61-20.88,10.24-25.5,16.41c-1.88,2.51-3.36,5.64-4.53,9.8c-10.65,33.47-15.97,50.21-15.97,50.21    c-37.3,25.69-55.95,38.54-55.95,38.54c8.06,11.84,12.09,17.76,12.09,17.76c1.08,3.56,1.38,6.78,0.9,9.66    c20.39-9.33,34.29-15.69,41.69-19.07c4.72-2.16,13.4-5.75,15.45-10.57c6.02-5.43,12.61-5.18,19.78,0.76    c1.55,8.16,2.33,12.24,2.33,12.24c14.53-0.66,21.79-0.99,21.79-0.99c32.93-24.17,49.11,8.3,63.14,4.56    c10.03,4.51,18.2,12.32,23.16,22.13c3.99-9.41,5.03-30.43,3.14-63.04c0,0,1.17-12.36,3.51-37.09    C403.75,126.23,402.08,108.47,389.5,98.96z"></path>
		<path class="st26" d="M100.68,185.16c-0.25-0.04-0.49,0.13-0.53,0.39c-0.18,1.42-1.55,9.24-1.6,10.48    c0.3,2.52,0.07,7.83,0.11,10.34c0.03,0.25,0.25,0.44,0.5,0.41c0.85-0.28,0.14-1.71,0.45-2.42h0c0.01-0.02,0.01-6.66,0.02-6.7    c-0.22-1.09-0.21-2.17,0.06-3.32c0,0,1.36-8.65,1.36-8.65C101.1,185.44,100.93,185.2,100.68,185.16z"></path>
		<path class="st26" d="M97,184.68c-0.24-0.07-0.5,0.07-0.57,0.31l-2.27,7.67c-0.59,1.49-1.05,2.86-0.66,4.22l-0.08,5.64    c-0.29,0.8-0.76,3.7,0.49,3.72c0.24-0.07,0.38-0.33,0.31-0.58c-0.28-0.96-0.25-1.96,0.1-2.9l0,0c0.02-0.05,0.03-0.1,0.03-0.16    l0.08-5.78c-0.35-1.25,0.03-2.44,0.6-3.84c0.02-0.06,2.28-7.69,2.29-7.74C97.39,185.01,97.25,184.75,97,184.68z"></path>
		<path class="st26" d="M109.35,199.76c-0.25,0.05-0.41,0.29-0.37,0.54l0.74,3.82c0.05,0.25,0.29,0.41,0.54,0.37    c0.25-0.05,0.41-0.29,0.37-0.54l-0.74-3.82C109.85,199.88,109.6,199.72,109.35,199.76z"></path>
		<path class="st26" d="M104.23,208.61c-0.97,1.04-2.51,1.28-3.75,0.6c-0.16-0.09-0.36-0.08-0.51,0.04    c-0.99,0.79-2.35,0.94-3.49,0.39c-0.23-0.11-0.51-0.01-0.62,0.22c-0.11,1.54,3.66,1.1,4.44,0.3c1.57,0.72,3.43,0.36,4.61-0.91    C105.32,208.8,104.63,208.16,104.23,208.61z"></path>
		<path class="st26" d="M109.93,205.96c-0.23-0.1-0.51,0.01-0.61,0.24c-0.32,0.73-1.14,1.11-1.91,0.87    c-0.57-0.18-0.85,0.72-0.27,0.88c1.21,0.37,2.52-0.22,3.03-1.39C110.27,206.34,110.16,206.07,109.93,205.96z"></path>
		<path class="st26" d="M105.82,271.64c-1.17,0.85-2.62,0.98-3.99,0.62c-1.91,0.22-5.07,1.11-5.65-1.57    c-0.05-0.2-0.25-0.32-0.44-0.28c-0.84,0.55,0.53,2.04,1.07,2.4c1.21,1.01,3.63,0.29,5.04,0.19c1,0.42,4.62,0.09,4.49-1.27    C106.22,271.57,105.98,271.53,105.82,271.64z"></path>
		<path class="st26" d="M101.09,278.15c-1.81,0.46-3.66,0.65-5.52,0.56c-0.2-0.01-0.38,0.15-0.39,0.35    C94.88,280.14,103.77,278.97,101.09,278.15z"></path>
		<path class="st26" d="M102.08,275.42c-1.48-0.05-3.81,0.01-5.26-0.18c-0.78-0.1-1.56-0.24-2.31-0.43c-0.2-0.05-0.4,0.07-0.45,0.27    s0.07,0.4,0.27,0.45c2.4,0.69,5.26,0.59,7.74,0.64C102.55,276.17,102.56,275.42,102.08,275.42z"></path>
		<path class="st48" d="M99.69,268.53c-0.55,1.18-0.45,2.56,0.27,3.65c1.14-0.17,1.7-0.26,1.7-0.26c0.48-1.25,0.36-2.65-0.34-3.79    C100.24,268.4,99.69,268.53,99.69,268.53z"></path>
		<path class="st19" d="M194.85,204.47c-3.07,1.15-4.6,1.73-4.6,1.73c-12.7-0.54-19.06-0.81-19.06-0.81    c-2.22-0.57-4.57-0.14-6.44,1.18c-7.8,3.42-9.57,1.99-10.89,7.38c0,0,0.86,0.37,2.57,1.1c1.01,2.55,4.07,3.85,9.17,3.92    c8.86,3.69,17.7,7.46,24.52,10.58c2.79-0.27,5.31-1.77,6.86-4.11c0,0,3.32-1.07,9.95-3.21    C205.91,214.74,201.44,208.17,194.85,204.47z"></path>
		<path class="st26" d="M180.12,210.86c-0.33-0.06-0.64,0.16-0.7,0.48c-0.48,2.58-2.28,4.69-4.75,5.58    c-0.74,0.25-0.33,1.41,0.4,1.13c2.86-1.02,4.97-3.51,5.53-6.5C180.66,211.23,180.44,210.92,180.12,210.86z"></path>
		<path class="st26" d="M189.41,218.56c-5.25,4.65-12.47,3.46-17.32-0.96c0,0-6.56,0.77-6.56,0.77c-0.3,0.03-0.53,0.29-0.53,0.58    c0.2,0.01,0.4,0.01,0.6,0.01l1.12,0.47l5.22-0.61c2.54,2.53,5.84,3.85,9.21,3.92c-0.67,0.58-1.23,1.28-1.64,2.09l1.11,0.47    c0.75-1.41,2.06-2.45,3.6-2.85c1.21-0.21,6.74-2.2,6.05-3.84C190.04,218.37,189.66,218.34,189.41,218.56z"></path>
		<path class="st26" d="M173.58,207.97l-3.18,2.3l-3.45,0.92c-0.59-0.06-1.17-0.06-1.75,0.01c0.11-0.96-0.49-3.75-1.85-3.11    c-0.25,0.22-0.27,0.6-0.06,0.85c0.6,0.69,0.84,1.62,0.66,2.52c-0.9,0.26-1.74,0.68-2.5,1.24l-0.88,0.1c0-1.01-1.7-3.66-2.74-2.46    c-0.15,0.3-0.02,0.66,0.27,0.8c0.71,0.35,1.18,1.02,1.28,1.79c-1.16,0.19-4.07,0.01-3.7,1.9c0.18,1.27,1.89,0.9,1.17-0.27    c1.17-0.47,3.66-0.46,4.9-0.68c1.63-1.11,3.44-1.71,5.43-1.5c0,0,3.64-0.97,3.64-0.97c0.07-0.02,0.14-0.05,0.2-0.09l3.27-2.37    C174.91,208.5,174.2,207.5,173.58,207.97z"></path>
		<path class="st26" d="M206.72,221.57l-9.92,3.2c-1.06,0.91-1.82,2.27-3.14,2.9c-1.09,0.65-2.32,1.06-3.61,1.18    c-0.24,0.02-0.44,0.17-0.55,0.37c0.55,0.28,1.1,0.57,1.63,0.87c2.54-0.49,4.79-1.95,6.28-4.07l9.68-3.12    c-0.12-0.42-0.22-0.87-0.31-1.35C206.77,221.55,206.75,221.56,206.72,221.57z"></path>
		<path class="st49" d="M160.33,145.05c0,0,0.02,2.06,0.06,6.17c0,0-1.65,0.73-4.96,2.19c2.89,25.01,39.1,23.03,39.27-2.13    C179.19,147.6,160.76,143.15,160.33,145.05z"></path>
		<defs>
			<filter id="Adobe_OpacityMaskFilter_11_" filterUnits="userSpaceOnUse" x="163.17" y="150.82" width="31.54" height="20.17">
				<feColorMatrix type="matrix" values="1 0 0 0 0  0 1 0 0 0  0 0 1 0 0  0 0 0 1 0"></feColorMatrix>
			</filter>
		</defs>
		<mask maskUnits="userSpaceOnUse" x="163.17" y="150.82" width="31.54" height="20.17" id="SVGID_25_">
			<g class="st50">
				
					<linearGradient id="SVGID_26_" gradientUnits="userSpaceOnUse" x1="-353.5851" y1="625.9275" x2="-369.9562" y2="608.5525" gradientTransform="matrix(1 0 0 1 542.6042 -454.3228)">
					<stop offset="0" style="stop-color:#000000"></stop>
					<stop offset="1" style="stop-color:#FFFFFF"></stop>
				</linearGradient>
				<rect x="163.17" y="150.82" class="st51" width="31.54" height="20.17"></rect>
			</g>
		</mask>
		<path class="st52" d="M163.17,150.82c10.4,13.45,15.6,20.17,15.6,20.17c9.4-1.82,16.13-10.14,15.93-19.71    c-0.98-0.19-1.47-0.29-1.47-0.29C187.42,156.75,177.39,156.69,163.17,150.82z"></path>
		<path class="st19" d="M198.04,120.67c-7.64-0.2-11.32,15.69-2.35,16.37C203.33,137.24,207.02,121.34,198.04,120.67z"></path>
		<path class="st53" d="M197.18,123.7c-4.93-0.18-7.34,10.24-1.52,10.62C200.59,134.5,203,124.08,197.18,123.7z"></path>
		<path class="st19" d="M150.52,125.44c-9.34,1.1-2.58,16.83,4.4,16.37C164.25,140.7,157.5,124.98,150.52,125.44z"></path>
		<path class="st53" d="M151.75,128.46c-6.07,0.64-1.6,11.03,2.85,10.62C160.67,138.45,156.21,128.06,151.75,128.46z"></path>
		<path class="st54" d="M153.18,130.1c-4.03,0.38-1.05,7.4,1.9,7.08C159.11,136.8,156.14,129.79,153.18,130.1z"></path>
		<path class="st19" d="M193.83,108.21c-30.65-1.83-46.45,3.55-38.14,24.7c0.52,10.79,5.39,18.36,14.61,22.69    c4.73,6.6,15.56,6.16,19.73-0.82c6.62-6.58,9.53-15.68,8.73-27.3C200.32,116.7,198.68,110.28,193.83,108.21z"></path>
		<defs>
			<filter id="Adobe_OpacityMaskFilter_12_" filterUnits="userSpaceOnUse" x="154.52" y="119.38" width="15.68" height="34.91">
				<feColorMatrix type="matrix" values="1 0 0 0 0  0 1 0 0 0  0 0 1 0 0  0 0 0 1 0"></feColorMatrix>
			</filter>
		</defs>
		<mask maskUnits="userSpaceOnUse" x="154.52" y="119.38" width="15.68" height="34.91" id="SVGID_27_">
			<g class="st55">
				
					<linearGradient id="SVGID_28_" gradientUnits="userSpaceOnUse" x1="-349.1232" y1="631.5073" x2="-376.8136" y2="614.1594" gradientTransform="matrix(1 0 0 1 526.7123 -485.1031)">
					<stop offset="0" style="stop-color:#000000"></stop>
					<stop offset="1" style="stop-color:#FFFFFF"></stop>
				</linearGradient>
				<rect x="154.54" y="119.45" class="st56" width="15.66" height="34.84"></rect>
			</g>
		</mask>
		<path class="st57" d="M169.65,141.84c-0.24-2.6-1.43-4.29-2.63-5.96c-3.93-5.48-3.86-12.15,2.06-16.13    c-13.83-2.02-17.52,4.57-12.29,12.63c1,9.34,5.47,16.65,13.41,21.91C166.03,151.36,170.14,147.22,169.65,141.84z"></path>
		<defs>
			<filter id="Adobe_OpacityMaskFilter_13_" filterUnits="userSpaceOnUse" x="159.13" y="107.79" width="40.2" height="52.19">
				<feColorMatrix type="matrix" values="1 0 0 0 0  0 1 0 0 0  0 0 1 0 0  0 0 0 1 0"></feColorMatrix>
			</filter>
		</defs>
		<mask maskUnits="userSpaceOnUse" x="159.13" y="107.79" width="40.2" height="52.19" id="SVGID_29_">
			<g class="st58">
				
					<linearGradient id="SVGID_30_" gradientUnits="userSpaceOnUse" x1="-362.2339" y1="612.0836" x2="-331.3094" y2="594.4861" gradientTransform="matrix(1 0 0 1 535.1598 -474.6101)">
					<stop offset="0" style="stop-color:#000000"></stop>
					<stop offset="1" style="stop-color:#FFFFFF"></stop>
				</linearGradient>
				<rect x="159.13" y="107.79" class="st59" width="40.2" height="52.19"></rect>
			</g>
		</mask>
		<path class="st60" d="M193.83,108.21c-16.76-1.24-28.32,0.28-34.7,4.55c6.36-2.38,15.2-3.76,26.52-4.16    c5.05,1.53,7.38,7.74,6.99,18.62c2.46,13.83-0.84,24.65-9.81,32.77c2.94-0.75,5.53-2.59,7.19-5.21c6.62-6.58,9.53-15.68,8.73-27.3    C200.32,116.7,198.68,110.28,193.83,108.21z"></path>
		<path class="st61" d="M183.34,105.53c-19.57,0.29-30.58,6.81-33.01,19.56c0.5,3.33,4.59,4.44,5.36,7.82    c-0.11-1.41-0.34-2.8-0.7-4.16c1.63-1.98,2.82-4.27,3.5-6.74c0.59,3.04,5.12,1.61,13.59-4.26c-0.95,4.66,15.08,1.34,18.26-6.95    c2.64,1.16,3.96,1.74,3.96,1.74c-0.15,3.82,1.22,7.55,3.81,10.37c0.45,1.48,0.67,3.02,0.65,4.56c-0.03-1.39,0.39-2.75,1.19-3.88    c0.54-1.7,0.56-3.53,0.05-5.25C194.95,109.78,189.39,105.51,183.34,105.53z"></path>
		<path class="st48" d="M185.84,93.25c-20.33-10.46-43.7,10.5-35.52,31.84c14.73-13.32,42.32-16.66,49.67-6.74    C200.87,107.88,195.26,97.93,185.84,93.25z"></path>
		<defs>
			<filter id="Adobe_OpacityMaskFilter_14_" filterUnits="userSpaceOnUse" x="148.75" y="90.56" width="30.49" height="34.52">
				<feColorMatrix type="matrix" values="1 0 0 0 0  0 1 0 0 0  0 0 1 0 0  0 0 0 1 0"></feColorMatrix>
			</filter>
		</defs>
		<mask maskUnits="userSpaceOnUse" x="148.75" y="90.56" width="30.49" height="34.52" id="SVGID_31_">
			<g class="st62">
				
					<linearGradient id="SVGID_32_" gradientUnits="userSpaceOnUse" x1="-330.6837" y1="633.9226" x2="-363.4748" y2="653.6092" gradientTransform="matrix(1 0 0 1 516.0319 -538.9172)">
					<stop offset="0" style="stop-color:#000000"></stop>
					<stop offset="1" style="stop-color:#FFFFFF"></stop>
				</linearGradient>
				<rect x="148.75" y="90.56" class="st63" width="30.49" height="34.52"></rect>
			</g>
		</mask>
		<path class="st64" d="M157.28,97.12c-7.83,7.02-10.59,18.1-6.96,27.97c2.92-2.64,6.35-4.89,10.02-6.72    c-1.48-12,7.04-24.44,18.89-27.35C171.5,89.54,163.34,91.69,157.28,97.12z"></path>
		<defs>
			<filter id="Adobe_OpacityMaskFilter_15_" filterUnits="userSpaceOnUse" x="270.59" y="256.97" width="42.93" height="19.67">
				<feColorMatrix type="matrix" values="1 0 0 0 0  0 1 0 0 0  0 0 1 0 0  0 0 0 1 0"></feColorMatrix>
			</filter>
		</defs>
		<mask maskUnits="userSpaceOnUse" x="270.59" y="256.97" width="42.93" height="19.67" id="SVGID_33_">
			<g class="st65">
				
					<linearGradient id="SVGID_34_" gradientUnits="userSpaceOnUse" x1="-437.6718" y1="542.3969" x2="-451.9647" y2="521.3591" gradientTransform="matrix(1 0 0 1 740.5659 -259.6377)">
					<stop offset="0" style="stop-color:#000000"></stop>
					<stop offset="1" style="stop-color:#FFFFFF"></stop>
				</linearGradient>
				<rect x="270.59" y="256.97" class="st66" width="42.93" height="19.67"></rect>
			</g>
		</mask>
		<path class="st67" d="M270.59,274.03c8.42,1.17,14.7,2.03,18.83,2.61c4.84-7.17,13.28-11.04,21.87-10.03    c0.34-2.33,1.08-4.28,2.22-5.85c-4.79-0.12-9.69-1.38-14.7-3.79C288.03,263.48,278.62,269.17,270.59,274.03z"></path>
		<path class="st26" d="M314.3,260.19c-1.43,0.52-5.03,5.53-3.01,6.41c0.38,0.05,0.73-0.22,0.77-0.6c0.12-0.96,0.45-1.86,0.96-2.65    c0.51-0.79,1.19-1.47,2.01-1.98c0.32-0.2,0.42-0.63,0.22-0.95C315.06,260.09,314.63,259.99,314.3,260.19z"></path>
		<defs>
			<filter id="Adobe_OpacityMaskFilter_16_" filterUnits="userSpaceOnUse" x="185.88" y="204.96" width="20.72" height="23.35">
				<feColorMatrix type="matrix" values="1 0 0 0 0  0 1 0 0 0  0 0 1 0 0  0 0 0 1 0"></feColorMatrix>
			</filter>
		</defs>
		<mask maskUnits="userSpaceOnUse" x="185.88" y="204.96" width="20.72" height="23.35" id="SVGID_35_">
			<g class="st68">
				
					<linearGradient id="SVGID_36_" gradientUnits="userSpaceOnUse" x1="-401.4106" y1="561.6492" x2="-379.2442" y2="567.8244" gradientTransform="matrix(1 0 0 1 584.4594 -348.6883)">
					<stop offset="0" style="stop-color:#000000"></stop>
					<stop offset="1" style="stop-color:#FFFFFF"></stop>
				</linearGradient>
				<rect x="185.88" y="204.96" class="st69" width="20.72" height="23.35"></rect>
			</g>
		</mask>
		<path class="st70" d="M195.69,204.96c1.71,2.53,2.23,5.68,1.41,8.63c-2.14,7.74-11.56,7.25-11.21,14.05    c1.01,0.45,1.51,0.68,1.51,0.68c3.21,0,6.16-1.73,7.75-4.52c0,0,3.82-1.15,11.45-3.46C205.2,213.94,201.26,208.39,195.69,204.96z"></path>
		<defs>
			<filter id="Adobe_OpacityMaskFilter_17_" filterUnits="userSpaceOnUse" x="105.69" y="264.17" width="31.9" height="14.48">
				<feColorMatrix type="matrix" values="1 0 0 0 0  0 1 0 0 0  0 0 1 0 0  0 0 0 1 0"></feColorMatrix>
			</filter>
		</defs>
		<mask maskUnits="userSpaceOnUse" x="105.69" y="264.17" width="31.9" height="14.48" id="SVGID_37_">
			<g class="st71">
				
					<linearGradient id="SVGID_38_" gradientUnits="userSpaceOnUse" x1="-329.0426" y1="519.0712" x2="-299.7298" y2="536.3594" gradientTransform="matrix(1 0 0 1 436.6882 -255.9146)">
					<stop offset="0" style="stop-color:#000000"></stop>
					<stop offset="1" style="stop-color:#FFFFFF"></stop>
				</linearGradient>
				<rect x="105.69" y="264.17" class="st72" width="31.9" height="14.48"></rect>
			</g>
		</mask>
		<path class="st73" d="M130.81,264.17c0.3,2.99-0.91,5.94-3.23,7.85c-6.44,5.3-13.57-2.96-21.89,6.63    c2.99-0.88,4.48-1.32,4.48-1.32c18.28-1.95,27.43-2.93,27.43-2.93c-1.45-2.74-2.32-5.75-2.56-8.83    C132.22,264.64,130.81,264.17,130.81,264.17z"></path>
		<defs>
			<filter id="Adobe_OpacityMaskFilter_18_" filterUnits="userSpaceOnUse" x="308.88" y="104.62" width="90.61" height="113.23">
				<feColorMatrix type="matrix" values="1 0 0 0 0  0 1 0 0 0  0 0 1 0 0  0 0 0 1 0"></feColorMatrix>
			</filter>
		</defs>
		<mask maskUnits="userSpaceOnUse" x="308.88" y="104.62" width="90.61" height="113.23" id="SVGID_39_">
			<g class="st74">
				
					<linearGradient id="SVGID_40_" gradientUnits="userSpaceOnUse" x1="-496.7068" y1="490.9125" x2="-426.5393" y2="557.9435" gradientTransform="matrix(1 0 0 1 811.1265 -367.5492)">
					<stop offset="0" style="stop-color:#000000"></stop>
					<stop offset="1" style="stop-color:#FFFFFF"></stop>
				</linearGradient>
				<rect x="308.88" y="104.62" class="st75" width="90.61" height="113.46"></rect>
			</g>
		</mask>
		<path class="st76" d="M390.81,104.62c19.7,32.96-35.07,30.93-25.96,62.84c2.27,7.87,8.5,11.17,8.11,20.78    c-0.24,5.94-3.28,11.4-8.31,13.97c-8.92,4.56-17.99-2.52-27.1-2.91c-11.17-0.48-22.27,4.86-28.67,14.95    c13.6-10.9,30.82-11.69,45.43-1.9c19.41,14.38,29.47-0.18,40.3-35.75c0,0,1.62-15.03,4.88-45.09    C399.54,118.64,396.65,109.67,390.81,104.62z"></path>
		<defs>
			<filter id="Adobe_OpacityMaskFilter_19_" filterUnits="userSpaceOnUse" x="373.45" y="181.14" width="25.78" height="49.8">
				<feColorMatrix type="matrix" values="1 0 0 0 0  0 1 0 0 0  0 0 1 0 0  0 0 0 1 0"></feColorMatrix>
			</filter>
		</defs>
		<mask maskUnits="userSpaceOnUse" x="373.45" y="181.14" width="25.78" height="49.8" id="SVGID_41_">
			<g class="st77">
				
					<linearGradient id="SVGID_42_" gradientUnits="userSpaceOnUse" x1="-541.3431" y1="581.2648" x2="-544.078" y2="546.1729" gradientTransform="matrix(1 0 0 1 930.1235 -343.8462)">
					<stop offset="0" style="stop-color:#000000"></stop>
					<stop offset="1" style="stop-color:#FFFFFF"></stop>
				</linearGradient>
				<rect x="373.45" y="181.14" class="st78" width="25.78" height="49.8"></rect>
			</g>
		</mask>
		<path class="st79" d="M386.33,206.04c-2.12,5.92-6.42,10.4-12.89,13.44c5.12,2.38,11.27,7.09,14.97,11.46    c-5.38-9.46,0.23-22.47,10.81-25.04c-0.11-10.46-0.36-18.71-0.74-24.75C395.08,189.78,391.02,198.08,386.33,206.04z"></path>
		<defs>
			<filter id="Adobe_OpacityMaskFilter_20_" filterUnits="userSpaceOnUse" x="284.67" y="102.28" width="98.3" height="98.2">
				<feColorMatrix type="matrix" values="1 0 0 0 0  0 1 0 0 0  0 0 1 0 0  0 0 0 1 0"></feColorMatrix>
			</filter>
		</defs>
		<mask maskUnits="userSpaceOnUse" x="284.67" y="102.28" width="98.3" height="98.2" id="SVGID_43_">
			<g class="st80">
				
					<linearGradient id="SVGID_44_" gradientUnits="userSpaceOnUse" x1="-385.2543" y1="579.4457" x2="-429.7282" y2="553.1282" gradientTransform="matrix(1 0 0 1 766.5265 -399.9946)">
					<stop offset="0" style="stop-color:#000000"></stop>
					<stop offset="1" style="stop-color:#FFFFFF"></stop>
				</linearGradient>
				<rect x="284.67" y="102.28" class="st81" width="98.3" height="98.2"></rect>
			</g>
		</mask>
		<path class="st82" d="M363.11,110.15c-4.34,5.14-6.11,11.97-4.82,18.57c-8.42,31.59-12.37,46.1-15.58,57.93    c-0.85,0.3-1.28,0.45-1.28,0.45c-44.95-2.64-31.08-1.8-54.83-3.23c-0.92,2.62-1.56,5.33-1.92,8.08c2.12,4.25,6.09,7.29,10.75,8.22    c9.03,1.8,14.2-5.25,21.53-8.72c8.93-4.23,16.76,1.15,24.4,2.31c8.83,1.34,15.69-5.03,17.52-12.8    c3.05-12.92-11.95-21.39-0.54-34.68c6.25-7.28,17.76-11.39,22.23-21.45c3.19-7.18,3.21-15.37,0.04-22.56    C373.88,102.12,367.44,105.01,363.11,110.15z"></path>
		<defs>
			<filter id="Adobe_OpacityMaskFilter_21_" filterUnits="userSpaceOnUse" x="293.77" y="183.19" width="9.58" height="1.25">
				<feColorMatrix type="matrix" values="1 0 0 0 0  0 1 0 0 0  0 0 1 0 0  0 0 0 1 0"></feColorMatrix>
			</filter>
		</defs>
		<mask maskUnits="userSpaceOnUse" x="293.77" y="183.19" width="9.58" height="1.25" id="SVGID_45_">
			<g class="st83">
				
					<linearGradient id="SVGID_46_" gradientUnits="userSpaceOnUse" x1="-475.0632" y1="527.4114" x2="-428.1908" y2="591.3332" gradientTransform="matrix(1 0 0 1 783.2837 -424.1976)">
					<stop offset="0" style="stop-color:#000000"></stop>
					<stop offset="1" style="stop-color:#FFFFFF"></stop>
				</linearGradient>
				<rect x="293.77" y="98.09" class="st84" width="86.84" height="89.24"></rect>
			</g>
		</mask>
		<path class="st85" d="M303.35,184.37c-2.57-0.32-5.76-0.71-9.58-1.18C296.91,184.24,300.16,184.61,303.35,184.37z"></path>
		<defs>
			<filter id="Adobe_OpacityMaskFilter_22_" filterUnits="userSpaceOnUse" x="303.35" y="98.09" width="77.26" height="89.24">
				<feColorMatrix type="matrix" values="1 0 0 0 0  0 1 0 0 0  0 0 1 0 0  0 0 0 1 0"></feColorMatrix>
			</filter>
		</defs>
		<mask maskUnits="userSpaceOnUse" x="303.35" y="98.09" width="77.26" height="89.24" id="SVGID_47_">
			<g class="st86">
				
					<linearGradient id="SVGID_48_" gradientUnits="userSpaceOnUse" x1="-475.0632" y1="527.4114" x2="-428.1908" y2="591.3332" gradientTransform="matrix(1 0 0 1 783.2837 -424.1976)">
					<stop offset="0" style="stop-color:#000000"></stop>
					<stop offset="1" style="stop-color:#FFFFFF"></stop>
				</linearGradient>
				<rect x="293.77" y="98.09" class="st87" width="86.84" height="89.24"></rect>
			</g>
		</mask>
		<path class="st88" d="M359.03,106.35c-3.78,14.74-13.24,12.27-24.85,19.37c-21.63,15.81,2.15,35.36-15.71,51.89    c-4.17,4.02-9.54,6.34-15.11,6.77c16.5,2.06,40.35,2.81,39.45,2.97c12.19-46.47,4.55-17.65,15.41-58.29    c-3.76-14.84,8.52-26.3,22.4-28.24C373.52,95.75,362.34,97.85,359.03,106.35z"></path>
		<defs>
			<filter id="Adobe_OpacityMaskFilter_23_" filterUnits="userSpaceOnUse" x="278.4" y="90.73" width="30.51" height="93.3">
				<feColorMatrix type="matrix" values="1 0 0 0 0  0 1 0 0 0  0 0 1 0 0  0 0 0 1 0"></feColorMatrix>
			</filter>
		</defs>
		<mask maskUnits="userSpaceOnUse" x="278.4" y="90.73" width="30.51" height="93.3" id="SVGID_49_">
			<g class="st89">
				
					<linearGradient id="SVGID_50_" gradientUnits="userSpaceOnUse" x1="-433.3313" y1="537.4592" x2="-486.8726" y2="595.2819" gradientTransform="matrix(1 0 0 1 754.9574 -430.2899)">
					<stop offset="0" style="stop-color:#000000"></stop>
					<stop offset="1" style="stop-color:#FFFFFF"></stop>
				</linearGradient>
				<rect x="278.4" y="90.73" class="st90" width="30.51" height="93.3"></rect>
			</g>
		</mask>
		<path class="st91" d="M308.49,151.75c-4.72-21.69-40.97-25.48-11.16-60.11c-1.88-0.6-2.82-0.91-2.82-0.91    c-7.03,5.14-11.74,9.74-14.13,13.81c-3.96,11.92-1.97,20.28,5.95,25.1c2.2,35.5,3.3,53.25,3.3,53.25c3.38,1.1,6.43,1.4,9.14,0.91    C293.33,176.34,311.87,167.28,308.49,151.75z"></path>
		<path class="st49" d="M337.47,87.19c-17.98,11.46-24.28,20.04-18.9,25.72c2,6.35,4.06,6.13,6.18-0.66    c13.4-4.04,22.96-15.86,24.12-29.8C339.92,82.7,336.12,84.28,337.47,87.19z"></path>
		<defs>
			<filter id="Adobe_OpacityMaskFilter_24_" filterUnits="userSpaceOnUse" x="316.64" y="87.88" width="25.13" height="29.64">
				<feColorMatrix type="matrix" values="1 0 0 0 0  0 1 0 0 0  0 0 1 0 0  0 0 0 1 0"></feColorMatrix>
			</filter>
		</defs>
		<mask maskUnits="userSpaceOnUse" x="316.64" y="87.88" width="25.13" height="29.64" id="SVGID_51_">
			<g class="st92">
				
					<linearGradient id="SVGID_52_" gradientUnits="userSpaceOnUse" x1="-506.7843" y1="674.3986" x2="-490.4131" y2="645.1943" gradientTransform="matrix(1 0 0 1 825.4312 -552.8744)">
					<stop offset="0" style="stop-color:#000000"></stop>
					<stop offset="1" style="stop-color:#FFFFFF"></stop>
				</linearGradient>
				<rect x="316.64" y="87.88" class="st93" width="25.13" height="29.64"></rect>
			</g>
		</mask>
		<path class="st94" d="M318.57,112.91c2,6.35,4.05,6.13,6.18-0.66c4.43-1.33,8.54-3.56,12.08-6.53c0,0,1.64-5.95,4.93-17.84    C320.36,98.4,312.63,106.75,318.57,112.91z"></path>
		<path class="st19" d="M290.03,56.55c-1.27,6.45-1.4,11.4-0.4,14.84c0.7,2.4,2.41,3.78,2.59,6.19c-0.18,3.69-1.18,7.4,1.11,11.07    c3.84,6.82,5.77,10.23,5.77,10.23c0.09,0.72,0.56,1.34,1.22,1.62c-0.28,1-0.01,2.08,0.72,2.83c0.95,1.93,1.21,4.05,3.09,5.39    c8.26,5.9,34.97-3.22,38.41-24.24C342.11,63.42,324.6,54.11,290.03,56.55z"></path>
		<defs>
			<filter id="Adobe_OpacityMaskFilter_25_" filterUnits="userSpaceOnUse" x="310.53" y="59.86" width="30.47" height="45.89">
				<feColorMatrix type="matrix" values="1 0 0 0 0  0 1 0 0 0  0 0 1 0 0  0 0 0 1 0"></feColorMatrix>
			</filter>
		</defs>
		<mask maskUnits="userSpaceOnUse" x="310.53" y="59.86" width="30.47" height="45.89" id="SVGID_53_">
			<g class="st95">
				
					<linearGradient id="SVGID_54_" gradientUnits="userSpaceOnUse" x1="-500.271" y1="676.8366" x2="-479.3689" y2="642.5153" gradientTransform="matrix(1 0 0 1 814.178 -574.5645)">
					<stop offset="0" style="stop-color:#000000"></stop>
					<stop offset="1" style="stop-color:#FFFFFF"></stop>
				</linearGradient>
				<rect x="310.53" y="59.86" class="st96" width="30.47" height="45.89"></rect>
			</g>
		</mask>
		<path class="st97" d="M310.53,62.57c9.13,4.64,14.72,8.83,12.87,16.95c-1.06,4.64-3.89,8.07,1.7,14.13    c3.04,3.29,5.97,6.02-1.19,12.09c8.96-5.42,14.66-12.22,17.09-20.41C340.05,62.8,329.9,55.22,310.53,62.57z"></path>
		<defs>
			<filter id="Adobe_OpacityMaskFilter_26_" filterUnits="userSpaceOnUse" x="288.96" y="56.17" width="21.08" height="54.27">
				<feColorMatrix type="matrix" values="1 0 0 0 0  0 1 0 0 0  0 0 1 0 0  0 0 0 1 0"></feColorMatrix>
			</filter>
		</defs>
		<mask maskUnits="userSpaceOnUse" x="288.96" y="56.17" width="21.08" height="54.27" id="SVGID_55_">
			<g class="st98">
				
					<linearGradient id="SVGID_56_" gradientUnits="userSpaceOnUse" x1="-454.0597" y1="647.9693" x2="-487.1167" y2="649.9336" gradientTransform="matrix(1 0 0 1 774.4329 -565.8996)">
					<stop offset="0" style="stop-color:#000000"></stop>
					<stop offset="1" style="stop-color:#FFFFFF"></stop>
				</linearGradient>
				<rect x="288.96" y="56.17" class="st99" width="21.08" height="54.27"></rect>
			</g>
		</mask>
		<path class="st100" d="M302.89,101.88c-0.58-0.87-0.65-1.98-0.19-2.91c-0.61-0.4-0.95-1.09-0.91-1.81c0,0-1.26-3.7-3.79-11.11    c-1.58-4.03,0.08-7.49,0.94-11.09c0.26-2.4-1.16-4.07-1.41-6.56c-0.31-3.11,0.44-7.19,2.25-12.23c-3.09,0.01-6.34,0.14-9.76,0.38    c-1.27,6.45-1.4,11.4-0.4,14.84c0.7,2.4,2.41,3.78,2.59,6.19c-0.18,3.69-1.18,7.4,1.11,11.07c3.84,6.82,5.77,10.23,5.77,10.23    c0.09,0.72,0.56,1.34,1.22,1.62c-0.28,1-0.01,2.08,0.72,2.83c1.49,4.67,3.57,6.95,9,7.13    C304.95,109.22,303.5,106.55,302.89,101.88z"></path>
		<path class="st61" d="M321.18,64.01c2.97,11.77,16.14,4.76,17.38,17.01c0.1,0.98,0.45,1.71,2.05,1.6    c1.8-1.05,5.35-4.09,10.65-9.11c0.19-1.44,0.37-2.88,0.52-4.33C351.09,67.43,340.89,65.7,321.18,64.01z"></path>
		<path class="st61" d="M301.52,104.41c0.73,16.17,23.39,14.79,18.79-2.64C317.8,110.61,303.24,110.04,301.52,104.41z"></path>
		<path class="st19" d="M349.64,70.24c-7.61-2.44-14.27,13.74-6.4,16.75C350.85,89.43,357.51,73.25,349.64,70.24z"></path>
		<path class="st53" d="M350.03,72.92c-5.46-1.82-10.32,10-4.63,12.1C350.86,86.84,355.72,75.02,350.03,72.92z"></path>
		<path class="st54" d="M347.66,74.32c-3.4-1.2-6.5,6.36-2.91,7.62C348.14,83.15,351.24,75.58,347.66,74.32z"></path>
		<path class="st48" d="M299.45,31.53c-5.01,4.79-8.95,18.26-9.42,25.02c28.85,9.11,49.44,13.32,61.76,12.63    c1.92-6.46,5.04-18.99,2.11-25.4C347.56,29.91,311.82,19.69,299.45,31.53z"></path>
		<defs>
			<filter id="Adobe_OpacityMaskFilter_27_" filterUnits="userSpaceOnUse" x="314.24" y="28.09" width="39.11" height="39.41">
				<feColorMatrix type="matrix" values="1 0 0 0 0  0 1 0 0 0  0 0 1 0 0  0 0 0 1 0"></feColorMatrix>
			</filter>
		</defs>
		<mask maskUnits="userSpaceOnUse" x="314.24" y="28.09" width="39.11" height="39.41" id="SVGID_57_">
			<g class="st101">
				
					<linearGradient id="SVGID_58_" gradientUnits="userSpaceOnUse" x1="-519.0252" y1="678.5216" x2="-471.4637" y2="699.9338" gradientTransform="matrix(1 0 0 1 821.0061 -645.0508)">
					<stop offset="0" style="stop-color:#000000"></stop>
					<stop offset="1" style="stop-color:#FFFFFF"></stop>
				</linearGradient>
				<rect x="314.24" y="28.09" class="st102" width="39.11" height="39.41"></rect>
			</g>
		</mask>
		<path class="st103" d="M314.24,28.23c25.11,7.24,28.29,15.68,21.6,37.95c-0.5,0.03-1.01,0.05-1.54,0.06    c6.41,1.04,11.75,1.44,16.01,1.2c1.76-5.93,4.63-17.43,1.94-23.32C347.9,34.6,328.51,26.96,314.24,28.23z"></path>
		<defs>
			<filter id="Adobe_OpacityMaskFilter_28_" filterUnits="userSpaceOnUse" x="208.31" y="120.13" width="80.59" height="108.4">
				<feColorMatrix type="matrix" values="1 0 0 0 0  0 1 0 0 0  0 0 1 0 0  0 0 0 1 0"></feColorMatrix>
			</filter>
		</defs>
		<mask maskUnits="userSpaceOnUse" x="208.31" y="120.13" width="80.59" height="108.4" id="SVGID_59_">
			<g class="st104">
				
					<linearGradient id="SVGID_60_" gradientUnits="userSpaceOnUse" x1="-406.2072" y1="496.5843" x2="-358.179" y2="539.6799" gradientTransform="matrix(1 0 0 1 625.7891 -348.2994)">
					<stop offset="0" style="stop-color:#000000"></stop>
					<stop offset="1" style="stop-color:#FFFFFF"></stop>
				</linearGradient>
				<rect x="208.31" y="120.13" class="st105" width="80.59" height="108.4"></rect>
			</g>
		</mask>
		<path class="st106" d="M286.39,130.7c-2.27-2.05-5.02-5.58-8.27-10.58c2.42,7.56-1.66,11.21-4.95,15.35    c-11.71,14.76,10.38,20.52,1.92,35.66c-2.99,5.35-8.98,8.28-15.03,7.36c-4.78,0.3-9.24,1.74-13.11,4.05    c-19.34,11.53-8.25,27.52-23.9,35.06c-4.62,2.23-9.96,2.44-14.74,0.59c1.24,3.6,1.85,7.04,1.82,10.33    c9.9-4.51,18.02-8.22,24.36-11.11c4.72-2.15,22.61-9.49,26.37-13.14c18.69-13.95,28.04-20.92,28.04-20.92    C288.53,161.02,286.6,134.88,286.39,130.7z"></path>
		<defs>
			<filter id="Adobe_OpacityMaskFilter_29_" filterUnits="userSpaceOnUse" x="194.85" y="107.22" width="79.14" height="104.13">
				<feColorMatrix type="matrix" values="1 0 0 0 0  0 1 0 0 0  0 0 1 0 0  0 0 0 1 0"></feColorMatrix>
			</filter>
		</defs>
		<mask maskUnits="userSpaceOnUse" x="194.85" y="107.22" width="79.14" height="104.13" id="SVGID_61_">
			<g class="st107">
				
					<linearGradient id="SVGID_62_" gradientUnits="userSpaceOnUse" x1="-321.1892" y1="550.1765" x2="-358.2943" y2="541.2285" gradientTransform="matrix(1 0 0 1 600.9911 -379.9474)">
					<stop offset="0" style="stop-color:#000000"></stop>
					<stop offset="1" style="stop-color:#FFFFFF"></stop>
				</linearGradient>
				<rect x="194.85" y="107.22" class="st108" width="79.16" height="104.13"></rect>
			</g>
		</mask>
		<path class="st109" d="M270.4,107.22c-1.42,2.16-2.63,4.99-3.63,8.49c-4.37,13.73-10.4,32.7-15.72,49.43    c-0.57,0.8-0.86,1.2-0.86,1.2c-17.14,11.81-35.59,24.52-55.34,38.12c3,1.69,5.61,4,7.64,6.77c5.03,0.56,10.07-1,13.91-4.3    c9.2-7.9,3.92-17.81,11.86-24.02c8.3-6.49,22.93,0.94,31.33-8.87c3.5-4.09,5.01-9.93,2.83-16.29    C250.93,135.07,284.69,132.53,270.4,107.22z"></path>
		<path class="st19" d="M282.64,183.05c-12.39-3.82-18.58-5.73-18.58-5.73c-2.34-0.99-4.72-1.14-7.13-0.44    c-8.69,0.35-13.04,0.53-13.04,0.53c-1.38,0.03-2.49,0.38-3.34,1.07c-1.67,0.86-4.53,1.91-4.18,4.27c0.29,2.9,4.05,3.08,4.03,2.1    c0.57,0.62,1.23,1.16,1.95,1.59c-4.04,1.5-2.79,7.72,1.52,7.55c-1.02,1.45-0.66,3.6,0.76,4.64c1.16,0.88,5.16,1.38,5.78,0.19    c0.95,0.09,1.43,0.13,1.43,0.13c-1.89,0.86-4.52,2.44-3.32,4.91c0.55,1.2,1.66,1.66,3.15,1.64c5.4,0.03,8.1,0.04,8.1,0.04    c9.17,0.95,10.72,0.74,17.91-2.56c0,0,2.36,0.01,7.08,0.03c-0.96-6.59-0.27-13.31,2.01-19.57    C284.01,183.18,282.64,183.05,282.64,183.05z"></path>
		<path class="st26" d="M258.4,188.11c-1.23,0.87-2.76,1.2-4.24,0.9c-0.33-0.06-0.64,0.15-0.71,0.47c-0.13,1.84,6.65,0.4,5.78-1.24    C259.05,187.98,258.67,187.91,258.4,188.11z"></path>
		<path class="st26" d="M241.21,181.32c-0.02-0.51,0.12-1.02,0.43-1.46c0.19-0.27,0.13-0.65-0.15-0.84c-1.16-0.5-1.5,1.56-1.48,2.34    c0.05,0.78,0.55,2.81,1.67,2.21c0.25-0.21,0.29-0.59,0.08-0.85C241.41,182.32,241.23,181.82,241.21,181.32z"></path>
		<path class="st26" d="M252.91,191.96l-9.13,1.43c-0.77,0.11-0.59,1.32,0.18,1.19c0,0,9.13-1.43,9.13-1.43    C253.86,193.03,253.68,191.83,252.91,191.96z"></path>
		<path class="st26" d="M262.16,201.19c-0.69,0.61-1.74,0.57-2.38-0.09c-0.23-0.24-0.61-0.24-0.85-0.01    c-0.24,0.23-0.24,0.61-0.01,0.85c1.09,1.12,2.87,1.19,4.04,0.15C263.54,201.58,262.73,200.67,262.16,201.19z"></path>
		<path class="st26" d="M256.13,197.68l-4.39,0.68c-0.43,0.05-0.65,0.58-0.41,0.93c-0.53,0.38-0.07,1.28,0.55,1.05    c0,0,4.52-1.49,4.52-1.49C257.1,198.63,256.84,197.55,256.13,197.68z"></path>
		<path class="st26" d="M254.85,182.44c-1.34-0.02-2.6,0.46-3.58,1.33c-0.16,0.02-9.65,0.47-9.81,0.51l0,0    c-0.55,0.22-1.39-0.38-1.63,0.4c-0.18,0.99,1.24,0.91,1.88,0.78c0,0,8.53-0.43,8.53-0.43c-0.03,0.06-0.07,0.11-0.1,0.17    l-7.83,0.64c-0.77,0.05-0.69,1.27,0.09,1.2c0,0,8.16-0.67,8.16-0.67c0.23-0.02,0.43-0.17,0.51-0.37c0.68-1.46,2.16-2.38,3.76-2.35    C255.61,183.66,255.63,182.44,254.85,182.44z"></path>
		<defs>
			<filter id="Adobe_OpacityMaskFilter_30_" filterUnits="userSpaceOnUse" x="263.46" y="184.73" width="22.85" height="20.14">
				<feColorMatrix type="matrix" values="1 0 0 0 0  0 1 0 0 0  0 0 1 0 0  0 0 0 1 0"></feColorMatrix>
			</filter>
		</defs>
		<mask maskUnits="userSpaceOnUse" x="263.46" y="184.73" width="22.85" height="20.14" id="SVGID_63_">
			<g class="st110">
				
					<linearGradient id="SVGID_64_" gradientUnits="userSpaceOnUse" x1="-460.8475" y1="580.1696" x2="-443.5756" y2="593.7408" gradientTransform="matrix(1 0 0 1 727.4344 -391.8946)">
					<stop offset="0" style="stop-color:#000000"></stop>
					<stop offset="1" style="stop-color:#FFFFFF"></stop>
				</linearGradient>
				<rect x="263.46" y="184.73" class="st111" width="22.85" height="20.14"></rect>
			</g>
		</mask>
		<path class="st112" d="M263.46,204.53c4.71,0.88,9.21,0.02,13.49-2.6c0,0,2.55-0.01,7.65-0.04c-0.61-6.4-0.04-12.13,1.71-17.17    C269.15,185.31,274.86,201.79,263.46,204.53z"></path>
		<path class="st113" d="M259.71,171.22c-1.48-0.53-9.34-2.16-9.59-0.07c0.05,0.41,0.41,0.7,0.82,0.65    c2.83-0.33,5.66-0.04,8.31,0.82c2.65,0.86,5.11,2.28,7.21,4.22c0.3,0.28,0.77,0.26,1.04-0.04    C268.57,174.99,261.19,171.64,259.71,171.22z"></path>
		<path class="st113" d="M248.86,207.49c-11.64,4.14-24.14-1.21-37.78-6.59c-0.86-0.39-1.48,0.99-0.58,1.36    c14.05,5.56,26.89,10.97,38.98,6.58C250.34,208.45,249.73,207.08,248.86,207.49z"></path>
		<path class="st113" d="M266.62,167.87c-4.79-2.48-10.33-3.5-15.93-2.67c-0.94,0.13-0.74,1.61,0.21,1.46    c10.57-1.55,20.94,3.83,25.76,13.35c0.18,0.36,0.63,0.51,0.99,0.33c0.36-0.18,0.51-0.63,0.33-0.99    C275.43,174.3,271.4,170.35,266.62,167.87z"></path>
		<path class="st113" d="M398.48,177.19c-0.4-0.1-0.8,0.15-0.89,0.54c-2.11,7.42-11.98,39.43-25.54,40.34    c-0.95-0.07-1.03,1.45-0.07,1.48c14.7-0.68,24.67-33.27,27.04-41.47C399.12,177.68,398.88,177.28,398.48,177.19z"></path>
		<path class="st113" d="M373.47,212.91c-8.66-0.75-12.21-8.54-15.8-17.29c-0.32-0.9-1.73-0.38-1.38,0.51    c3.76,9.32,7.83,17.58,17.17,18.25C374.4,214.41,374.43,212.92,373.47,212.91z"></path>
		<path class="st113" d="M366.78,177.85c-5.41-0.4-10.97,1.25-15.42,5.05c-0.73,0.61,0.24,1.76,0.96,1.12    c8.28-7.07,20.71-6.15,27.86,2.07c0.61,0.73,1.76-0.26,1.12-0.97C377.45,180.71,372.19,178.25,366.78,177.85z"></path>
		<path class="st113" d="M279.72,168.27c-9.27-3.21-14.35-11.56-18.99-21.34c-0.38-0.87-1.76-0.27-1.35,0.61    c4.78,10.15,10.22,18.84,19.9,22.15C280.19,169.97,280.64,168.55,279.72,168.27z"></path>
		<path class="st113" d="M380.61,100.81c-14.32-0.33-26.12,13.95-23.11,27.94l-15.54,57.9l-23-1.65l8.58-64.07    c15.95-4.92,27.54-18.73,29.6-35.31c0.12-0.94-1.36-1.14-1.47-0.18c-1.01,8.08-4.36,15.47-9.4,21.43    c-5.05,5.95-11.8,10.47-19.6,12.78c-0.3,0.09-0.5,0.35-0.53,0.65c0,0-8.65,64.6-8.65,64.6l-5.61-0.4l8.66-63.2    c0.06-0.38-0.17-0.75-0.55-0.84c-1.45-0.36-2.79-0.99-3.97-1.86c-1.18-0.87-2.18-1.97-2.95-3.25c-0.21-0.35-0.66-0.46-1.01-0.25    c-1.68,1.77,5.17,6.47,6.93,6.63l-8.58,62.67l-20.77-1.49l-2.43-53.01c-0.01-0.26-0.16-0.49-0.37-0.61    c-7.94-5.08-10.43-15.52-5.63-23.63c0.5-0.81-0.8-1.59-1.27-0.75c-5.14,8.68-2.57,19.86,5.81,25.44l2.41,52.46    c0,0-1.33-0.1-1.33-0.1c-0.93-0.08-1.08,1.42-0.1,1.48c0,0,55.73,4,55.73,4c14.03-3.63,28.62,3.67,33.83,17.26    c0.31,0.89,1.75,0.37,1.38-0.53c-5.28-13.74-19.77-21.55-34.1-18.47l15.42-57.46c-0.49-3.35-0.63-6.75,0.26-9.99    c2.27-9.59,11.5-16.82,21.38-16.7C381.56,102.31,381.57,100.79,380.61,100.81z"></path>
		<path class="st113" d="M326.99,192.73c-0.36-0.2-0.81-0.07-1,0.29c-5.51,7.29-15.81,10.16-26.72,14.27    c-0.9,0.29-0.44,1.72,0.47,1.4c11.29-4.24,21.9-7.21,27.55-14.96C327.47,193.37,327.34,192.92,326.99,192.73z"></path>
		<defs>
			<filter id="Adobe_OpacityMaskFilter_31_" filterUnits="userSpaceOnUse" x="139.47" y="158.68" width="1.51" height="0.67">
				<feColorMatrix type="matrix" values="1 0 0 0 0  0 1 0 0 0  0 0 1 0 0  0 0 0 1 0"></feColorMatrix>
			</filter>
		</defs>
		<mask maskUnits="userSpaceOnUse" x="139.47" y="158.68" width="1.51" height="0.67" id="SVGID_65_">
			<g class="st114">
				
					<linearGradient id="SVGID_66_" gradientUnits="userSpaceOnUse" x1="-316.4994" y1="558.3721" x2="-347.6843" y2="578.6339" gradientTransform="matrix(1 0 0 1 464.0034 -385.846)">
					<stop offset="0" style="stop-color:#000000"></stop>
					<stop offset="1" style="stop-color:#FFFFFF"></stop>
				</linearGradient>
				<rect x="120.52" y="158.68" class="st115" width="20.46" height="49.47"></rect>
			</g>
		</mask>
		<path class="st116" d="M140.98,158.68c-0.52,0.2-1.02,0.42-1.51,0.67C139.95,159.13,140.45,158.91,140.98,158.68z"></path>
		<defs>
			<filter id="Adobe_OpacityMaskFilter_32_" filterUnits="userSpaceOnUse" x="120.52" y="159.35" width="18.95" height="48.8">
				<feColorMatrix type="matrix" values="1 0 0 0 0  0 1 0 0 0  0 0 1 0 0  0 0 0 1 0"></feColorMatrix>
			</filter>
		</defs>
		<mask maskUnits="userSpaceOnUse" x="120.52" y="159.35" width="18.95" height="48.8" id="SVGID_67_">
			<g class="st117">
				
					<linearGradient id="SVGID_68_" gradientUnits="userSpaceOnUse" x1="-316.4994" y1="558.3721" x2="-347.6843" y2="578.6339" gradientTransform="matrix(1 0 0 1 464.0034 -385.846)">
					<stop offset="0" style="stop-color:#000000"></stop>
					<stop offset="1" style="stop-color:#FFFFFF"></stop>
				</linearGradient>
				<rect x="120.52" y="158.68" class="st118" width="20.46" height="49.47"></rect>
			</g>
		</mask>
		<path class="st119" d="M129.22,167.31c-3.08,3.82-5.39,13.83-5.93,18.2c-1.25,8.02-1.57,12.36-2.78,21.59    c3.75,0.44,6.83,0.79,9.22,1.05c-6.3-2.26-8.2-10.05-2.46-14.74c1.97-1.61,4.27-3.2,5.38-6.38c2.77-7.92-5.12-11.8,0.4-21.58    c1.44-2.56,3.64-4.71,6.41-6.1C134.95,161.46,132.48,162.86,129.22,167.31z"></path>
		<path class="st120" d="M266.96,251.97c-10.99-16.5-116.82,38.07-145.01,49.68c0,1.82,0,2.74,0,2.74c4.45-1.26,6.67-1.9,6.67-1.9    c0.11-0.22,0.16-0.42,0.16-0.59l11.27,0.41c0,0,127.02-41.93,127.02-41.93C270.17,258.96,267.38,254.21,266.96,251.97z"></path>
		<path class="st121" d="M266.96,254.7c-10.99-16.5-116.82,38.07-145.01,49.68c0,0,6.03,0.22,18.1,0.65l127.02-41.93    C270.17,261.69,267.38,256.95,266.96,254.7z"></path>
		<path class="st120" d="M127.09,253.91c-0.52,2-2.13,5.36,0.48,6.53c0,0,127.02,41.93,127.02,41.93l11.86-0.43    c0.16,0.4,0.52,0.91,1.11,1.53c3.42,0.61,5.13,0.91,5.13,0.91s0-0.89,0-2.66C244.32,289.5,138.59,236.1,127.09,253.91z"></path>
		<path class="st122" d="M127.09,256.58c-0.52,2-2.13,5.36,0.48,6.53c0,0,127.02,41.93,127.02,41.93c12.07-0.44,18.1-0.65,18.1-0.65    C244.32,292.17,138.59,238.76,127.09,256.58z"></path>
		<path class="st123" d="M275.98,245.52c-0.31-0.97-1.36-1.51-2.33-1.2l-78.11,24.82c-1.51-0.89-3.46-1.29-5.27-1.02    c-0.07-0.71-0.56-1.35-1.28-1.58l-60.78-19.41c-0.97-0.31-2.02,0.23-2.33,1.2l-1.72,5.37c-0.31,0.97,0.23,2.02,1.2,2.33    l58.03,18.53c-1.94,10.86,13.93,13.83,16.12,3.11l76.96-24.46c0.97-0.31,1.51-1.36,1.2-2.33L275.98,245.52z"></path>
		<path class="st121" d="M191.44,271.72c-5.95,0.1-5.95,8.95,0,9.05C197.39,280.67,197.39,271.82,191.44,271.72z"></path>
		<path class="st124" d="M164.51,246.62c0,0-11.59-4.08-34.76-12.24c0,0-5.49,1.03-16.47,3.1c29.11,10.95,43.66,16.43,43.66,16.43    c32.89,16.23,44.62,19.82,35.36,4.39C190.5,251.81,180.47,246.03,164.51,246.62z"></path>
		<path class="st125" d="M263.85,235.89c2.62,5.09,6.95,7.72,13.01,7.89c0,0-2.1-1.62-6.29-4.87    C270.58,238.92,268.34,237.91,263.85,235.89z"></path>
		<path class="st124" d="M225.38,247.36c-13.58,0.59-22.51,3.64-26.78,9.14c-4.98,2.03-5.2,4.47-0.66,7.33    c0,0,23.66-8.03,70.99-24.08c-3.38-2.57-5.07-3.86-5.07-3.86C238.2,243.53,225.38,247.36,225.38,247.36z"></path>
		<path class="st125" d="M229.24,251.42c-19.7,0.2-32.45,4.87-38.26,14.01c-4.36-9.14-14.26-13.35-29.71-12.62    c-31.99-10.22-47.99-15.32-47.99-15.32c-6.41,1.81-9.61,2.72-9.61,2.72c53.6,17.77,80.4,26.65,80.4,26.65    c2.68,5.64,10.86,6.92,15.14,2.37c2.78-1.61,24.56-8.05,77.66-25.44c-5.29-2.69-7.94-4.04-7.94-4.04    C242.47,247.53,229.24,251.42,229.24,251.42z"></path>
		<path class="st126" d="M277.59,243.56c0,0-78.23,24.28-78.23,24.28c-1.16,0.94-2.01,2.35-3.5,2.88c-2.37,1.15-5.43,0.88-7.56-0.68    c-1.54-0.84-1.92-2.57-3.07-3.51c0,0-81.56-26.32-81.56-26.32c-0.49-0.16-1.01,0.11-1.16,0.6c-0.16,0.49,0.11,1.01,0.6,1.16    l81.19,26.2c2.89,6.08,12.03,6.86,15.91,1.35l77.94-24.19C279.27,244.99,278.73,243.19,277.59,243.56z"></path>
		<path class="st124" d="M184.31,226.86c-6.79-2.82-17.35-7.3-31.69-13.44c-10.64,5.73-15.64,21.92-27.82,29.4    c10.77,1.77,19.91,2.32,27.43,1.65c4.14,0.19,11.62,0.03,22.45-0.47c11.32-2.52,20.85,9.99,16.72,20.78    c6.72-6.13,12.62-14.24,8.67-25.11C197.57,232.83,191.33,229.86,184.31,226.86z"></path>
		<path class="st127" d="M189.2,248.85c-5.81-7.58-16.11-5.45-24.32-5.15c-13.38,0.7-25.94,1.36-40.08-0.88    c-0.25-0.04-0.49,0.13-0.53,0.38c-0.04,0.25,0.13,0.49,0.38,0.53c14.25,2.26,26.85,1.6,40.27,0.89    c11.73-0.85,24.02-2.32,26.88,12.42c0.36,2.74-0.05,5.58-1.26,8.19c-0.11,0.23-0.01,0.51,0.23,0.61c0.23,0.11,0.51,0.01,0.61-0.23    C193.96,260.08,193.11,253.55,189.2,248.85z"></path>
		<path class="st127" d="M186.71,242.57c-4.58-2.97-11.55-3.95-20.89-2.93c-9.83,0.81-20.42,0.98-31.36,0.92    c8.07-7.95,12.43-19,21.93-25.54l-0.95-0.41c-9.95,6.98-14.24,18.98-23.28,26.83c11.72,0.1,23.2-0.03,33.74-0.9    c14.92-1.39,26.06,0.79,26.48,15.91c-0.12,0.04-0.13,0.41-0.02,1.11c0.3,1.88,0.45,2.82,0.45,2.82    C194.35,253.86,192.22,245.83,186.71,242.57z"></path>
		<path class="st123" d="M191.44,274.74c-1.95-0.03-1.95,3.03,0,3C193.39,277.77,193.39,274.71,191.44,274.74z"></path>
		<path class="st128" d="M130.97,175.9c-1.18-0.02-1.18,1.84,0,1.82C132.15,177.74,132.15,175.88,130.97,175.9z"></path>
		<path class="st128" d="M147.57,173.47c-0.99-0.01-0.99,1.54,0,1.52C148.56,175.01,148.56,173.46,147.57,173.47z"></path>
		<path class="st128" d="M174.2,226.7c-0.85-0.01-0.85,1.33,0,1.31C175.05,228.02,175.05,226.68,174.2,226.7z"></path>
		<path class="st128" d="M205.4,202.75c-0.85-0.01-0.85,1.33,0,1.31C206.26,204.08,206.26,202.74,205.4,202.75z"></path>
		<path class="st128" d="M128.15,229.62c-0.85-0.01-0.85,1.33,0,1.31C129,230.95,129,229.61,128.15,229.62z"></path>
		<path class="st128" d="M269.07,170.45c-0.85-0.01-0.85,1.33,0,1.31C269.92,171.78,269.92,170.44,269.07,170.45z"></path>
		<path class="st128" d="M93.09,308.44c-1.21-0.02-1.21,1.88,0,1.86C94.29,310.32,94.29,308.42,93.09,308.44z"></path>
		<path class="st128" d="M85.54,298.45c-0.63-0.01-0.63,0.98,0,0.97C86.17,299.44,86.17,298.45,85.54,298.45z"></path>
		<path class="st128" d="M110.24,291.62c-0.63-0.01-0.63,0.98,0,0.97C110.87,292.61,110.87,291.62,110.24,291.62z"></path>
		<path class="st128" d="M166.61,304.24c-1.21-0.02-1.21,1.88,0,1.86C167.82,306.12,167.82,304.22,166.61,304.24z"></path>
		<path class="st128" d="M184.09,212.18c-0.85-0.01-0.85,1.33,0,1.31C184.94,213.5,184.94,212.16,184.09,212.18z"></path>
		<path class="st128" d="M181.16,200.31c-1.05-0.02-1.05,1.64,0,1.62C182.21,201.94,182.21,200.29,181.16,200.31z"></path>
		<path class="st128" d="M176.67,197.78c-0.84-0.01-0.84,1.31,0,1.3C177.51,199.09,177.51,197.77,176.67,197.78z"></path>
		<path class="st128" d="M183.77,192.93c-0.84-0.01-0.84,1.31,0,1.3C184.61,194.24,184.61,192.91,183.77,192.93z"></path>
		<path class="st128" d="M166.61,181.3c-0.84-0.01-0.84,1.31,0,1.3C167.45,182.61,167.45,181.29,166.61,181.3z"></path>
		<path class="st128" d="M246.41,237.47c-1.05-0.02-1.05,1.64,0,1.62C247.46,239.1,247.46,237.45,246.41,237.47z"></path>
		<path class="st128" d="M332.91,150.46c-1.18-0.02-1.18,1.84,0,1.82C334.1,152.3,334.1,150.44,332.91,150.46z"></path>
		<path class="st128" d="M328.09,170.24c-0.96-0.01-0.96,1.49,0,1.48C329.04,171.73,329.04,170.23,328.09,170.24z"></path>
		<path class="st128" d="M326.74,166.72c-0.66-0.01-0.66,1.02,0,1.01C327.4,167.74,327.4,166.71,326.74,166.72z"></path>
		<path class="st128" d="M369.55,176.96c-0.66-0.01-0.66,1.02,0,1.01C370.21,177.99,370.21,176.95,369.55,176.96z"></path>
		<path class="st128" d="M342.92,237.75c-1.18-0.02-1.18,1.84,0,1.82C344.1,239.59,344.1,237.73,342.92,237.75z"></path>
		<path class="st128" d="M278.12,119.11c-0.66-0.01-0.66,1.02,0,1.01C278.78,120.14,278.78,119.1,278.12,119.11z"></path>
		<path class="st128" d="M377.47,298.09c-1.18-0.02-1.18,1.84,0,1.82C378.65,299.93,378.65,298.07,377.47,298.09z"></path>
	</g>
	<path class="st129" d="M191.24,69.95V45.93c0-12.51,10.14-22.65,22.65-22.65h36.28c12.51,0,22.65,10.14,22.65,22.65v24.02   c0,12.51-10.14,22.65-22.65,22.65h-36.28C201.38,92.6,191.24,82.46,191.24,69.95z"></path>
	<path class="st130" d="M252.75,85.19H211.3c-6.99,0-12.65-5.66-12.65-12.65V43.35c0-6.99,5.66-12.65,12.65-12.65h41.45   c6.99,0,12.65,5.66,12.65,12.65v29.19C265.4,79.52,259.73,85.19,252.75,85.19z"></path>
	<path class="st2" d="M242.03,55.7c-23.23-13.05-19.32-15.24-19.64,11.34c0,2,2.16,3.24,3.89,2.25l15.75-9.09   C243.76,59.19,243.76,56.7,242.03,55.7z"></path>
</g>
</svg>
